{
.appVersion = "3306";
.formatVersion = 3;
DisplayStrings = (
"0",
"1",
"Ա1",
"2",
"3",
"4",
"5",
"6",
"7",
"8",
"9",
"՚",
"300000֏",
"և",
"Ա",
"ա",
"  Բ1234567890ընտանիք",
"բ",
"Գ",
"գ",
"Դ",
"դ",
"Ե",
"ե",
"Զ",
"զ",
"Է",
"է",
"Ը",
"ը",
"Թ",
"թ",
"Ժ",
"ժ",
"Մ",
"Ի",
"ի",
"Լ",
"լ",
"Խ",
"խ",
"Ծ",
"ծ",
"Կ",
"կ",
"Հ",
"հ",
"Ձ",
"ձ",
"Ղ",
"ղ",
"Ճ",
"ճ",
"մ",
"Յ",
"յ",
"Ն",
"ն",
"Շ",
"շ",
"Ո",
"ո",
"Չ",
"չ",
"Պ",
"պ",
"Ջ",
"ջ",
"Ռ",
"ռ",
"Ս",
"ս",
"Վ",
"վ",
"Տ",
"տ",
"Ր",
"ր",
"Ց",
"ց",
"Ւ",
"ւ",
"Փ",
"փ",
"Ք",
"ք",
"Օ",
"օ",
"Ֆ",
"ֆ"
);
date = "2026-01-02 14:28:09 +0000";
familyName = "Henrik Mn Extended One";
fontMaster = (
{
id = m01;
metricValues = (
{
over = 16;
pos = 400;
},
{
over = -16;
},
{
over = -16;
pos = -100;
}
);
name = Regular;
}
);
glyphs = (
{
glyphname = "Ayb-arm";
lastChange = "2026-01-02 14:29:16 +0000";
layers = (
{
layerId = m01;
shapes = (
{
closed = 1;
nodes = (
(1082,10,l),
(1082,4,o),
(1078,0,o),
(1072,0,c),
(832,0,l),
(827,0,o),
(822,4,o),
(822,10,c),
(822,23,l),
(822,41,o),
(808,55,o),
(790,55,c),
(789,55,l),
(787,24,o),
(761,0,o),
(730,0,c),
(70,0,l),
(36,0,o),
(10,27,o),
(10,60,c),
(10,280,l),
(10,285,o),
(14,290,o),
(20,290,c),
(326,290,l),
(331,290,o),
(335,286,o),
(335,281,c),
(335,68,l),
(335,43,o),
(355,23,o),
(380,23,c),
(420,23,l),
(444,23,o),
(465,43,o),
(465,68,c),
(465,281,l),
(465,286,o),
(469,290,o),
(474,290,c),
(780,290,l),
(785,290,o),
(790,285,o),
(790,280,c),
(790,72,l),
(1052,72,l),
(1069,72,o),
(1082,59,o),
(1082,42,c)
);
}
);
width = 1092;
}
);
unicode = 1329;
},
{
glyphname = "Ben-arm";
lastChange = "2026-01-02 14:30:27 +0000";
layers = (
{
layerId = m01;
shapes = (
{
closed = 1;
nodes = (
(465,262,l),
(465,270,o),
(459,276,o),
(451,276,c),
(350,276,l),
(346,276,o),
(342,274,o),
(339,272,c),
(337,269,o),
(335,266,o),
(335,262,c),
(335,102,l),
(730,102,l),
(763,102,o),
(790,75,o),
(790,42,c),
(790,39,l),
(790,34,o),
(786,29,o),
(780,29,c),
(475,29,l),
(470,29,o),
(465,34,o),
(465,39,c),
(465,73,l),
(465,81,o),
(459,88,o),
(451,88,c),
(350,88,l),
(346,88,o),
(342,86,o),
(339,83,c),
(337,81,o),
(335,77,o),
(335,73,c),
(335,10,l),
(335,4,o),
(331,0,o),
(325,0,c),
(20,0,l),
(15,0,o),
(10,4,o),
(10,10,c),
(10,231,l),
(10,264,o),
(37,291,o),
(70,291,c),
(730,291,l),
(763,291,o),
(790,264,o),
(790,231,c),
(790,155,l),
(790,150,o),
(786,145,o),
(780,145,c),
(475,145,l),
(470,145,o),
(465,150,o),
(465,155,c)
);
}
);
width = 800;
}
);
unicode = 1330;
},
{
glyphname = "Gim-arm";
lastChange = "2026-01-02 14:31:47 +0000";
layers = (
{
layerId = m01;
shapes = (
{
closed = 1;
nodes = (
(465,149,l),
(465,140,o),
(461,132,o),
(456,126,c),
(450,120,o),
(442,116,o),
(433,116,c),
(368,116,l),
(359,116,o),
(350,120,o),
(345,126,c),
(339,132,o),
(335,140,o),
(335,149,c),
(335,243,l),
(335,252,o),
(339,260,o),
(345,266,c),
(350,272,o),
(359,276,o),
(368,276,c),
(433,276,l),
(442,276,o),
(450,272,o),
(456,266,c),
(461,260,o),
(465,252,o),
(465,243,c)
);
},
{
closed = 1;
nodes = (
(790,116,l),
(790,230,l),
(790,263,o),
(763,290,o),
(730,290,c),
(70,290,l),
(37,290,o),
(10,263,o),
(10,230,c),
(10,161,l),
(10,128,o),
(37,101,o),
(70,101,c),
(335,101,l),
(335,102,l),
(465,102,l),
(465,10,l),
(465,4,o),
(469,0,o),
(475,0,c),
(780,0,l),
(785,0,o),
(790,4,o),
(790,10,c),
(790,87,l),
(790,91,o),
(791,95,o),
(794,97,c),
(797,100,o),
(800,102,o),
(804,102,c),
(840,102,l),
(848,102,o),
(855,95,o),
(855,87,c),
(855,56,l),
(855,51,o),
(859,46,o),
(865,46,c),
(1071,46,l),
(1077,46,o),
(1081,51,o),
(1081,56,c),
(1081,86,l),
(1081,103,o),
(1068,116,o),
(1051,116,c)
);
}
);
width = 1091;
}
);
unicode = 1331;
},
{
glyphname = "Da-arm";
lastChange = "2026-01-02 14:32:23 +0000";
layers = (
{
layerId = m01;
shapes = (
{
closed = 1;
nodes = (
(1081,71,l),
(1081,65,o),
(1077,61,o),
(1071,61,c),
(865,61,l),
(859,61,o),
(855,65,o),
(855,71,c),
(855,102,l),
(855,110,o),
(848,116,o),
(840,116,c),
(804,116,l),
(800,116,o),
(797,114,o),
(794,112,c),
(791,109,o),
(790,106,o),
(790,102,c),
(790,10,l),
(790,4,o),
(785,0,o),
(780,0,c),
(507,0,l),
(502,0,o),
(497,4,o),
(497,10,c),
(497,261,l),
(497,269,o),
(491,276,o),
(483,276,c),
(349,276,l),
(345,276,o),
(342,274,o),
(339,271,c),
(336,269,o),
(335,265,o),
(335,261,c),
(335,112,l),
(335,106,o),
(330,102,o),
(325,102,c),
(20,102,l),
(14,102,o),
(10,106,o),
(10,112,c),
(10,230,l),
(10,264,o),
(37,290,o),
(70,290,c),
(335,290,l),
(730,290,l),
(763,290,o),
(790,263,o),
(790,230,c),
(790,131,l),
(1051,131,l),
(1068,131,o),
(1081,117,o),
(1081,101,c)
);
}
);
width = 1091;
}
);
unicode = 1332;
},
{
glyphname = "Ech-arm";
lastChange = "2026-01-02 14:33:06 +0000";
layers = (
{
layerId = m01;
shapes = (
{
closed = 1;
nodes = (
(465,170,l),
(465,177,o),
(463,183,o),
(459,188,c),
(458,190,o),
(457,192,o),
(455,193,c),
(449,199,o),
(441,203,o),
(432,203,c),
(349,203,l),
(345,203,o),
(341,201,o),
(339,199,c),
(336,196,o),
(335,192,o),
(335,188,c),
(335,29,l),
(335,21,o),
(341,14,o),
(349,14,c),
(450,14,l),
(454,14,o),
(458,16,o),
(460,19,c),
(463,21,o),
(465,25,o),
(465,29,c),
(465,77,l),
(465,82,o),
(469,87,o),
(475,87,c),
(747,87,l),
(753,87,o),
(757,82,o),
(757,77,c),
(757,60,l),
(757,27,o),
(730,0,o),
(697,0,c),
(70,0,l),
(36,0,o),
(10,27,o),
(10,60,c),
(10,280,l),
(10,285,o),
(14,290,o),
(20,290,c),
(326,290,l),
(331,290,o),
(335,286,o),
(335,281,c),
(335,217,l),
(697,217,l),
(730,217,o),
(757,191,o),
(757,157,c),
(757,155,l),
(757,149,o),
(753,145,o),
(747,145,c),
(475,145,l),
(469,145,o),
(465,149,o),
(465,155,c)
);
}
);
width = 767;
}
);
unicode = 1333;
},
{
glyphname = "Za-arm";
lastChange = "2026-01-02 14:34:18 +0000";
layers = (
{
layerId = m01;
shapes = (
{
closed = 1;
nodes = (
(790,0,l),
(476,0,l),
(470,0,o),
(466,5,o),
(466,12,c),
(466,44,o),
(451,58,o),
(433,58,c),
(336,58,l),
(336,25,l),
(336,19,o),
(331,15,o),
(325,15,c),
(20,15,l),
(15,15,o),
(10,19,o),
(10,25,c),
(10,106,l),
(10,112,o),
(15,116,o),
(20,116,c),
(325,116,l),
(331,116,o),
(336,112,o),
(336,106,c),
(336,73,l),
(433,73,l),
(442,73,o),
(450,76,o),
(456,82,c),
(458,84,o),
(459,85,o),
(460,87,c),
(464,92,o),
(466,98,o),
(466,105,c),
(466,261,l),
(466,269,o),
(459,276,o),
(451,276,c),
(350,276,l),
(346,276,o),
(342,274,o),
(340,271,c),
(337,269,o),
(336,265,o),
(336,261,c),
(336,160,l),
(20,160,l),
(15,160,o),
(10,164,o),
(10,170,c),
(10,230,l),
(10,263,o),
(37,290,o),
(70,290,c),
(715,290,l),
(748,290,o),
(775,263,o),
(775,230,c),
(775,137,o),
(775,87,o),
(500,87,c),
(499,87,o),
(498,86,o),
(498,85,c),
(498,77,l),
(498,75,o),
(499,74,o),
(500,75,c),
(730,87,l),
(764,87,o),
(790,55,o),
(790,15,c)
);
}
);
width = 800;
}
);
unicode = 1334;
},
{
glyphname = "Eh-arm";
lastChange = "2026-01-02 14:34:54 +0000";
layers = (
{
layerId = m01;
shapes = (
{
closed = 1;
nodes = (
(790,155,l),
(790,149,o),
(786,145,o),
(780,145,c),
(475,145,l),
(470,145,o),
(465,149,o),
(465,155,c),
(465,163,l),
(465,172,o),
(462,181,o),
(456,188,c),
(449,197,o),
(438,203,o),
(425,203,c),
(350,203,l),
(346,203,o),
(342,201,o),
(340,198,c),
(337,196,o),
(335,192,o),
(335,188,c),
(335,29,l),
(335,25,o),
(337,21,o),
(340,18,c),
(342,16,o),
(346,14,o),
(350,14,c),
(715,14,l),
(721,14,o),
(725,10,o),
(725,4,c),
(725,-19,l),
(725,-25,o),
(721,-29,o),
(715,-29,c),
(508,-29,l),
(502,-29,o),
(498,-25,o),
(498,-19,c),
(498,-15,l),
(498,-11,o),
(496,-7,o),
(494,-5,c),
(491,-2,o),
(487,0,o),
(483,0,c),
(20,0,l),
(15,0,o),
(10,4,o),
(10,10,c),
(10,280,l),
(10,285,o),
(15,290,o),
(20,290,c),
(325,290,l),
(331,290,o),
(335,285,o),
(335,280,c),
(335,217,l),
(730,217,l),
(764,217,o),
(790,190,o),
(790,157,c)
);
}
);
width = 800;
}
);
unicode = 1335;
},
{
glyphname = "Et-arm";
lastChange = "2026-01-02 14:35:46 +0000";
layers = (
{
layerId = m01;
shapes = (
{
closed = 1;
nodes = (
(790,-19,l),
(790,-25,o),
(785,-29,o),
(780,-29,c),
(475,-29,l),
(469,-29,o),
(465,-25,o),
(465,-19,c),
(465,-5,o),
(459,0,o),
(450,0,cs),
(10,0,l),
(10,240,l),
(10,268,o),
(32,290,o),
(60,290,c),
(729,290,l),
(762,290,o),
(789,263,o),
(789,230,c),
(789,97,l),
(789,91,o),
(784,87,o),
(779,87,c),
(475,87,l),
(469,87,o),
(465,91,o),
(465,97,c),
(465,261,l),
(465,269,o),
(458,276,o),
(450,276,c),
(349,276,l),
(345,276,o),
(342,274,o),
(339,271,c),
(336,269,o),
(335,265,o),
(335,261,c),
(335,29,l),
(335,25,o),
(336,21,o),
(339,19,c),
(342,16,o),
(345,15,o),
(349,15,c),
(780,15,l),
(785,15,o),
(790,10,o),
(790,5,c)
);
}
);
width = 800;
}
);
unicode = 1336;
},
{
glyphname = "To-arm";
lastChange = "2026-01-02 14:42:02 +0000";
layers = (
{
layerId = m01;
shapes = (
{
closed = 1;
nodes = (
(595,29,l),
(595,21,o),
(588,15,o),
(580,15,c),
(544,15,l),
(533,15,o),
(514,24,o),
(514,87,c),
(514,154,o),
(535,160,o),
(544,160,c),
(580,160,l),
(588,160,o),
(595,153,o),
(595,145,c)
);
},
{
closed = 1;
nodes = (
(920,174,l),
(920,230,l),
(920,264,o),
(893,290,o),
(860,290,c),
(70,290,l),
(36,290,o),
(10,264,o),
(10,230,c),
(10,10,l),
(10,5,o),
(14,0,o),
(20,0,c),
(325,0,l),
(330,0,o),
(335,5,o),
(335,10,c),
(335,211,l),
(335,229,o),
(342,245,o),
(354,257,c),
(365,269,o),
(382,276,o),
(400,276,c),
(530,276,l),
(548,276,o),
(564,269,o),
(576,257,c),
(587,245,o),
(595,229,o),
(595,211,c),
(595,174,l),
(460,174,l),
(426,174,o),
(400,148,o),
(400,114,c),
(400,60,l),
(400,27,o),
(426,0,o),
(460,0,c),
(860,0,l),
(893,0,o),
(920,27,o),
(920,60,c),
(920,160,l),
(941,160,l),
(965,160,o),
(985,140,o),
(985,116,c),
(985,112,l),
(985,106,o),
(989,102,o),
(995,102,c),
(1170,102,l),
(1175,102,o),
(1180,106,o),
(1180,112,c),
(1180,114,l),
(1180,148,o),
(1153,174,o),
(1120,174,c)
);
}
);
width = 1190;
}
);
unicode = 1337;
},
{
glyphname = "Zhe-arm";
lastChange = "2026-01-02 14:43:22 +0000";
layers = (
{
layerId = m01;
shapes = (
{
closed = 1;
nodes = (
(498,87,l),
(498,67,o),
(489,49,o),
(476,36,c),
(463,22,o),
(445,14,o),
(425,14,c),
(408,14,l),
(387,14,o),
(369,22,o),
(356,36,c),
(343,49,o),
(335,67,o),
(335,87,c),
(335,145,l),
(335,165,o),
(343,183,o),
(356,196,c),
(369,209,o),
(387,217,o),
(408,217,c),
(488,217,l),
(493,217,o),
(498,213,o),
(498,207,c)
);
},
{
closed = 1;
nodes = (
(823,217,l),
(823,280,l),
(823,285,o),
(818,290,o),
(813,290,c),
(508,290,l),
(502,290,o),
(498,285,o),
(498,280,c),
(498,232,l),
(70,232,l),
(37,232,o),
(10,205,o),
(10,172,c),
(10,60,l),
(10,27,o),
(37,0,o),
(70,0,c),
(335,0,l),
(763,0,l),
(796,0,o),
(823,27,o),
(823,60,c),
(823,203,l),
(844,203,l),
(868,203,o),
(888,183,o),
(888,159,c),
(888,151,l),
(888,146,o),
(892,141,o),
(898,141,c),
(1105,141,l),
(1111,141,o),
(1115,146,o),
(1115,151,c),
(1115,157,l),
(1115,191,o),
(1088,217,o),
(1055,217,c)
);
}
);
width = 1125;
}
);
unicode = 1338;
},
{
glyphname = "Ini-arm";
layers = (
{
layerId = m01;
shapes = (
{
closed = 1;
nodes = (
(790,83,l),
(790,77,o),
(785,73,o),
(780,73,c),
(442,73,l),
(437,73,o),
(432,77,o),
(432,83,c),
(432,131,l),
(432,142,o),
(428,152,o),
(421,160,c),
(413,169,o),
(402,174,o),
(389,174,c),
(335,174,l),
(335,10,l),
(335,5,o),
(330,0,o),
(325,0,c),
(20,0,l),
(14,0,o),
(10,5,o),
(10,10,c),
(10,280,l),
(10,286,o),
(14,290,o),
(20,290,c),
(325,290,l),
(330,290,o),
(335,286,o),
(335,280,c),
(335,189,l),
(730,189,l),
(763,189,o),
(790,162,o),
(790,129,c)
);
}
);
width = 800;
}
);
unicode = 1339;
},
{
glyphname = "Liwn-arm";
lastChange = "2026-01-02 16:34:34 +0000";
layers = (
{
layerId = m01;
shapes = (
{
closed = 1;
nodes = (
(628,-33,l),
(628,-39,o),
(623,-43,o),
(618,-43,c),
(410,-43,l),
(405,-43,o),
(400,-39,o),
(400,-33,c),
(400,-14,l),
(400,-10,o),
(399,-7,o),
(396,-4,c),
(393,-1,o),
(390,0,o),
(386,0,c),
(335,0,l),
(20,0,l),
(15,0,o),
(10,5,o),
(10,10,c),
(10,280,l),
(10,286,o),
(15,290,o),
(20,290,c),
(325,290,l),
(331,290,o),
(335,286,o),
(335,280,c),
(335,29,l),
(335,25,o),
(337,22,o),
(339,19,c),
(342,16,o),
(346,15,o),
(350,15,c),
(498,15,l),
(598,15,l),
(614,15,o),
(628,1,o),
(628,-15,c)
);
}
);
width = 638;
}
);
unicode = 1340;
},
{
glyphname = "Xeh-arm";
lastChange = "2026-01-02 14:44:17 +0000";
layers = (
{
layerId = m01;
shapes = (
{
closed = 1;
nodes = (
(1115,60,l),
(1115,27,o),
(1088,0,o),
(1055,0,c),
(460,0,l),
(427,0,o),
(400,27,o),
(400,60,c),
(400,160,l),
(400,168,o),
(393,174,o),
(385,174,c),
(349,174,l),
(341,174,o),
(335,168,o),
(335,160,c),
(335,10,l),
(335,5,o),
(330,0,o),
(325,0,c),
(20,0,l),
(14,0,o),
(10,5,o),
(10,10,c),
(10,280,l),
(10,286,o),
(14,290,o),
(20,290,c),
(325,290,l),
(330,290,o),
(335,286,o),
(335,280,c),
(335,189,l),
(650,189,l),
(655,189,o),
(660,184,o),
(660,179,c),
(660,29,l),
(660,21,o),
(666,15,o),
(674,15,c),
(775,15,l),
(783,15,o),
(790,21,o),
(790,29,c),
(790,179,l),
(790,184,o),
(794,189,o),
(800,189,c),
(1105,189,l),
(1110,189,o),
(1115,184,o),
(1115,179,c)
);
}
);
width = 1125;
}
);
unicode = 1341;
},
{
glyphname = "Ca-arm";
lastChange = "2026-01-02 14:44:31 +0000";
layers = (
{
layerId = m01;
shapes = (
{
closed = 1;
nodes = (
(595,58,l),
(595,46,o),
(591,35,o),
(583,27,c),
(575,19,o),
(564,14,o),
(552,14,c),
(509,14,l),
(485,14,o),
(465,34,o),
(465,58,c),
(465,174,l),
(465,186,o),
(470,197,o),
(478,205,c),
(486,213,o),
(497,217,o),
(509,217,c),
(552,217,l),
(576,217,o),
(595,198,o),
(595,174,c)
);
},
{
closed = 1;
nodes = (
(295,246,l),
(282,246,o),
(270,258,o),
(270,271,c),
(270,280,l),
(270,286,o),
(266,290,o),
(260,290,c),
(20,290,l),
(15,290,o),
(10,286,o),
(10,280,c),
(10,262,l),
(10,245,o),
(24,232,o),
(40,232,c),
(270,232,l),
(331,232,l),
(334,232,o),
(335,230,o),
(335,228,c),
(335,221,l),
(335,219,o),
(334,217,o),
(331,217,c),
(168,217,l),
(135,217,o),
(108,191,o),
(108,157,c),
(108,60,l),
(108,27,o),
(135,0,o),
(168,0,c),
(893,0,l),
(926,0,o),
(953,27,o),
(953,60,c),
(953,157,l),
(953,176,o),
(945,192,o),
(932,203,c),
(928,206,o),
(924,209,o),
(920,211,c),
(912,215,o),
(903,217,o),
(893,217,c),
(794,217,l),
(792,217,o),
(790,219,o),
(790,221,c),
(790,228,l),
(790,230,o),
(792,232,o),
(794,232,c),
(956,232,l),
(972,232,o),
(985,219,o),
(985,203,c),
(985,196,l),
(985,191,o),
(990,186,o),
(995,186,c),
(1236,186,l),
(1241,186,o),
(1246,191,o),
(1246,196,c),
(1246,216,l),
(1246,233,o),
(1232,246,o),
(1216,246,c)
);
}
);
width = 1256;
}
);
unicode = 1342;
},
{
glyphname = "Ken-arm";
lastChange = "2026-01-02 14:44:42 +0000";
layers = (
{
layerId = m01;
shapes = (
{
closed = 1;
nodes = (
(790,10,l),
(790,5,o),
(785,0,o),
(780,0,c),
(475,0,l),
(469,0,o),
(465,5,o),
(465,10,c),
(465,63,l),
(465,68,o),
(460,73,o),
(455,73,c),
(70,73,l),
(36,73,o),
(10,100,o),
(10,133,c),
(10,280,l),
(10,286,o),
(14,290,o),
(20,290,c),
(325,290,l),
(330,290,o),
(335,286,o),
(335,280,c),
(335,146,l),
(335,141,o),
(335,135,o),
(336,131,c),
(343,106,o),
(366,87,o),
(393,87,c),
(455,87,l),
(460,87,o),
(465,92,o),
(465,97,c),
(465,208,l),
(465,213,o),
(469,218,o),
(475,218,c),
(780,218,l),
(785,218,o),
(790,213,o),
(790,208,c)
);
}
);
width = 800;
}
);
unicode = 1343;
},
{
glyphname = "Ho-arm";
lastChange = "2026-01-02 14:44:54 +0000";
layers = (
{
layerId = m01;
shapes = (
{
closed = 1;
nodes = (
(790,10,l),
(790,5,o),
(785,0,o),
(780,0,c),
(475,0,l),
(469,0,o),
(465,4,o),
(465,10,c),
(465,91,l),
(465,91,o),
(465,92,o),
(465,92,c),
(464,114,o),
(446,131,o),
(425,131,c),
(367,131,l),
(367,145,l),
(425,145,l),
(446,145,o),
(464,163,o),
(465,184,c),
(465,184,o),
(465,185,o),
(465,185,c),
(465,236,l),
(465,236,o),
(465,237,o),
(465,237,c),
(464,259,o),
(446,276,o),
(425,276,c),
(375,276,l),
(353,276,o),
(335,258,o),
(335,236,c),
(335,199,l),
(335,193,o),
(330,189,o),
(325,189,c),
(20,189,l),
(14,189,o),
(10,193,o),
(10,199,c),
(10,250,l),
(10,273,o),
(28,290,o),
(50,290,c),
(725,290,l),
(757,290,o),
(789,282,o),
(789,250,c),
(789,185,l),
(789,155,o),
(757,145,o),
(725,145,c),
(693,145,l),
(693,131,l),
(725,131,l),
(757,131,o),
(790,107,o),
(790,71,c)
);
}
);
width = 800;
}
);
unicode = 1344;
},
{
glyphname = "Ja-arm";
lastChange = "2026-01-02 14:46:11 +0000";
layers = (
{
layerId = m01;
shapes = (
{
closed = 1;
nodes = (
(79,39,l),
(45,39,o),
(29,86,o),
(62,104,c),
(109,129,o),
(173,63,o),
(189,47,c),
(193,44,o),
(191,39,o),
(186,39,c)
);
},
{
closed = 1;
nodes = (
(740,41,o),
(791,60,o),
(791,102,c),
(791,233,l),
(791,266,o),
(759,291,o),
(726,291,c),
(71,291,l),
(19,289,o),
(7,244,o),
(11,199,c),
(11,194,o),
(16,189,o),
(21,189,c),
(326,189,l),
(332,189,o),
(336,194,o),
(336,199,c),
(335,232,o),
(331,274,o),
(376,276,c),
(376,276,o),
(426,276,o),
(426,276,c),
(448,276,o),
(466,258,o),
(466,236,c),
(466,236,o),
(466,146,o),
(466,146,c),
(466,146,l),
(466,97,l),
(466,93,o),
(462,91,o),
(460,94,c),
(418,130,l),
(407,140,o),
(393,146,o),
(378,146,c),
(69,146,l),
(19,144,o),
(7,101,o),
(11,59,c),
(11,21,o),
(46,-4,o),
(82,1,c),
(82,1,o),
(364,1,o),
(364,1,c),
(367,1,o),
(370,1,o),
(373,2,c),
(429,28,l),
(432,29,o),
(435,28,o),
(438,26,c),
(463,3,l),
(465,2,o),
(468,1,o),
(470,1,c),
(787,1,l),
(789,1,o),
(791,2,o),
(791,5,c),
(791,26,l),
(791,28,o),
(789,30,o),
(787,30,c),
(712,30,l),
(710,30,o),
(710,33,o),
(712,34,c)
);
}
);
width = 801;
}
);
unicode = 1345;
},
{
glyphname = "Ghad-arm";
lastChange = "2026-01-02 14:48:39 +0000";
layers = (
{
layerId = m01;
shapes = (
{
closed = 1;
nodes = (
(1083,-33,l),
(1083,-39,o),
(1078,-43,o),
(1073,-43,c),
(865,-43,l),
(860,-43,o),
(855,-39,o),
(855,-33,c),
(855,-14,l),
(855,-5,o),
(848,0,o),
(841,0,c),
(475,0,l),
(470,0,o),
(465,5,o),
(465,10,c),
(465,247,l),
(465,263,o),
(452,276,o),
(436,276,c),
(364,276,l),
(351,276,o),
(335,264,o),
(335,247,c),
(335,126,l),
(335,121,o),
(331,116,o),
(325,116,c),
(20,116,l),
(15,116,o),
(10,121,o),
(10,126,c),
(10,230,l),
(10,264,o),
(37,290,o),
(70,290,c),
(730,290,l),
(763,290,o),
(790,264,o),
(790,230,c),
(790,15,l),
(1053,15,l),
(1069,15,o),
(1083,1,o),
(1083,-15,c)
);
}
);
width = 1093;
}
);
unicode = 1346;
},
{
glyphname = "Cheh-arm";
lastChange = "2026-01-02 14:47:11 +0000";
layers = (
{
layerId = m01;
shapes = (
{
closed = 1;
nodes = (
(378,30,l),
(372,30,o),
(368,34,o),
(368,40,c),
(368,163,l),
(368,174,o),
(374,184,o),
(384,192,c),
(394,199,o),
(409,204,o),
(425,204,c),
(430,204,o),
(436,203,o),
(441,201,c),
(450,199,o),
(458,195,o),
(465,190,c),
(491,173,o),
(506,143,o),
(506,112,c),
(506,40,l),
(506,34,o),
(502,30,o),
(496,30,c)
);
},
{
closed = 1;
nodes = (
(550,213,l),
(546,214,o),
(547,220,o),
(551,220,c),
(763,244,l),
(778,246,o),
(790,259,o),
(790,274,c),
(790,281,l),
(790,286,o),
(785,291,o),
(780,291,c),
(534,291,l),
(532,291,o),
(530,289,o),
(530,287,c),
(528,257,o),
(503,233,o),
(473,233,c),
(214,289,l),
(210,290,o),
(206,286,o),
(206,282,c),
(206,279,o),
(208,276,o),
(211,275,c),
(361,235,l),
(365,234,o),
(368,230,o),
(368,226,cs),
(368,222,o),
(364,218,o),
(360,217,c),
(62,182,l),
(33,178,o),
(10,152,o),
(10,122,c),
(10,60,l),
(10,27,o),
(37,0,o),
(70,0,c),
(780,0,l),
(786,0,o),
(790,5,o),
(790,10,c),
(790,100,l),
(790,127,o),
(772,151,o),
(747,158,c)
);
}
);
width = 800;
}
);
unicode = 1347;
},
{
glyphname = "Men-arm";
lastChange = "2026-01-02 14:48:03 +0000";
layers = (
{
layerId = m01;
shapes = (
{
closed = 1;
nodes = (
(1088,228,l),
(1088,222,o),
(1083,218,o),
(1078,218,c),
(838,218,l),
(832,218,o),
(828,222,o),
(828,228,c),
(828,240,l),
(828,270,o),
(799,273,o),
(792,273,c),
(790,273,o),
(790,272,o),
(790,271,c),
(790,60,l),
(790,27,o),
(763,0,o),
(729,0,c),
(70,0,l),
(36,0,o),
(10,27,o),
(10,60,c),
(10,280,l),
(10,286,o),
(14,290,o),
(20,290,c),
(326,290,l),
(330,290,o),
(335,286,o),
(335,281,c),
(335,68,l),
(335,44,o),
(355,23,o),
(380,23,c),
(420,23,l),
(444,23,o),
(464,43,o),
(465,67,c),
(465,280,l),
(465,286,o),
(469,290,o),
(475,290,c),
(1058,290,l),
(1074,290,o),
(1088,277,o),
(1088,260,c)
);
}
);
width = 1098;
}
);
unicode = 1348;
},
{
glyphname = "Yi-arm";
lastChange = "2026-01-02 16:36:02 +0000";
layers = (
{
layerId = m01;
shapes = (
{
closed = 1;
nodes = (
(693,145,l),
(734,146,o),
(785,150,o),
(788,95,c),
(789,54,o),
(793,2,o),
(738,0,c),
(738,0,o),
(71,0,o),
(71,0,c),
(18,1,o),
(7,46,o),
(11,91,c),
(11,97,o),
(15,101,o),
(21,101,c),
(326,101,l),
(354,99,o),
(309,23,o),
(374,15,c),
(375,15,o),
(427,14,o),
(428,15,c),
(476,18,o),
(465,72,o),
(466,105,c),
(466,111,o),
(464,118,o),
(461,124,c),
(447,151,o),
(414,144,o),
(390,145,c),
(336,145,l),
(336,159,l),
(446,159,l),
(457,159,o),
(466,168,o),
(466,179,c),
(465,213,o),
(477,274,o),
(426,275,c),
(393,274,o),
(339,285,o),
(336,236,c),
(335,234,o),
(336,200,o),
(336,197,c),
(335,192,o),
(331,188,o),
(326,188,c),
(21,188,l),
(15,188,o),
(11,193,o),
(11,198,c),
(12,232,o),
(0,288,o),
(51,290,c),
(51,290,o),
(741,290,o),
(741,290,c),
(768,290,o),
(791,267,o),
(791,240,c),
(796,158,o),
(763,157,o),
(693,159,c)
);
}
);
width = 801;
}
);
unicode = 1349;
},
{
glyphname = "Now-arm";
lastChange = "2026-01-02 14:49:07 +0000";
layers = (
{
layerId = m01;
shapes = (
{
closed = 1;
nodes = (
(1088,145,l),
(1088,60,l),
(1088,26,o),
(1061,0,o),
(1028,0,c),
(368,0,l),
(335,0,o),
(308,26,o),
(308,60,c),
(308,217,l),
(40,217,l),
(23,217,o),
(10,231,o),
(10,247,c),
(10,280,l),
(10,285,o),
(14,290,o),
(20,290,c),
(260,290,l),
(265,290,o),
(270,285,o),
(270,280,c),
(270,267,l),
(270,249,o),
(284,234,o),
(302,234,c),
(623,234,l),
(629,234,o),
(633,230,o),
(633,224,c),
(633,68,l),
(633,43,o),
(653,23,o),
(678,23,c),
(718,23,l),
(743,23,o),
(763,43,o),
(763,68,c),
(763,135,l),
(763,140,o),
(768,145,o),
(773,145,c)
);
}
);
width = 1098;
}
);
unicode = 1350;
},
{
glyphname = "Sha-arm";
lastChange = "2026-01-02 14:49:34 +0000";
layers = (
{
layerId = m01;
shapes = (
{
closed = 1;
nodes = (
(498,168,l),
(498,179,o),
(489,188,o),
(478,188,c),
(375,188,l),
(354,188,o),
(336,171,o),
(335,149,c),
(335,149,o),
(335,148,o),
(335,148,c),
(335,69,l),
(335,68,o),
(335,68,o),
(335,68,c),
(336,46,o),
(354,29,o),
(375,29,c),
(478,29,l),
(494,29,o),
(508,42,o),
(508,59,c),
(508,97,l),
(508,99,o),
(510,101,o),
(512,101,c),
(780,101,l),
(785,101,o),
(790,97,o),
(790,91,c),
(790,60,l),
(790,26,o),
(763,0,o),
(730,0,c),
(70,0,l),
(37,0,o),
(10,26,o),
(10,60,c),
(10,157,l),
(10,190,o),
(37,217,o),
(70,217,c),
(458,217,l),
(462,217,o),
(465,220,o),
(465,224,c),
(465,228,o),
(462,232,o),
(458,232,c),
(40,232,l),
(24,232,o),
(10,245,o),
(10,262,c),
(10,280,l),
(10,285,o),
(15,290,o),
(20,290,c),
(331,290,l),
(333,290,o),
(335,288,o),
(335,286,c),
(335,265,l),
(335,262,o),
(337,261,o),
(339,261,c),
(760,261,l),
(777,261,o),
(790,247,o),
(790,231,c),
(790,169,l),
(790,164,o),
(786,159,o),
(780,159,c),
(502,159,l),
(500,159,o),
(498,161,o),
(498,163,c)
);
}
);
width = 800;
}
);
unicode = 1351;
},
{
glyphname = "Vo-arm";
lastChange = "2026-01-02 14:50:07 +0000";
layers = (
{
layerId = m01;
shapes = (
{
closed = 1;
nodes = (
(790,10,l),
(790,5,o),
(786,0,o),
(780,0,c),
(474,0,l),
(469,0,o),
(465,5,o),
(465,9,c),
(465,222,l),
(465,247,o),
(445,267,o),
(420,267,c),
(380,267,l),
(356,267,o),
(336,248,o),
(335,223,c),
(335,223,o),
(335,222,o),
(335,222,c),
(335,10,l),
(335,5,o),
(331,0,o),
(325,0,c),
(20,0,l),
(14,0,o),
(10,5,o),
(10,10,c),
(10,231,l),
(10,264,o),
(37,291,o),
(70,291,c),
(730,291,l),
(763,291,o),
(790,264,o),
(790,231,c)
);
}
);
width = 800;
}
);
unicode = 1352;
},
{
glyphname = "Cha-arm";
lastChange = "2026-01-02 14:50:37 +0000";
layers = (
{
layerId = m01;
shapes = (
{
closed = 1;
nodes = (
(790,160,l),
(790,142,o),
(778,127,o),
(760,122,c),
(530,58,l),
(488,58,l),
(530,46,l),
(678,3,l),
(680,3,o),
(680,0,o),
(678,0,c),
(368,0,l),
(367,0,o),
(367,0,o),
(366,0,c),
(23,97,l),
(21,98,o),
(22,101,o),
(24,101,c),
(333,101,l),
(334,101,o),
(335,101,o),
(336,101,c),
(400,83,l),
(425,75,l),
(448,83,o),
(465,104,o),
(465,130,c),
(465,232,l),
(465,256,o),
(445,275,o),
(421,275,c),
(378,275,l),
(355,275,o),
(335,257,o),
(335,232,c),
(335,169,l),
(335,163,o),
(330,159,o),
(325,159,c),
(20,159,l),
(14,159,o),
(10,163,o),
(10,169,c),
(10,250,l),
(10,272,o),
(27,290,o),
(50,290,c),
(750,290,l),
(772,290,o),
(790,272,o),
(790,250,c)
);
}
);
width = 800;
}
);
unicode = 1353;
},
{
glyphname = "Peh-arm";
lastChange = "2026-01-02 14:51:12 +0000";
layers = (
{
layerId = m01;
shapes = (
{
closed = 1;
nodes = (
(790,10,l),
(790,4,o),
(785,0,o),
(780,0,c),
(507,0,l),
(502,0,o),
(497,4,o),
(497,10,c),
(497,234,l),
(497,250,o),
(484,263,o),
(468,263,c),
(461,263,l),
(445,263,o),
(432,250,o),
(432,234,c),
(432,234,o),
(432,234,o),
(432,99,c),
(432,93,o),
(428,89,o),
(422,89,c),
(312,89,l),
(307,89,o),
(302,93,o),
(302,99,c),
(302,234,l),
(302,250,o),
(289,263,o),
(273,263,c),
(266,263,l),
(250,263,o),
(237,250,o),
(237,234,c),
(237,201,l),
(237,195,o),
(233,191,o),
(227,191,c),
(20,191,l),
(14,191,o),
(10,195,o),
(10,201,c),
(10,232,l),
(10,265,o),
(37,292,o),
(70,292,c),
(730,292,l),
(763,292,o),
(790,265,o),
(790,232,c)
);
}
);
width = 800;
}
);
unicode = 1354;
},
{
glyphname = "Jheh-arm";
lastChange = "2026-01-02 14:51:45 +0000";
layers = (
{
layerId = m01;
shapes = (
{
closed = 1;
nodes = (
(465,62,l),
(465,59,o),
(464,58,o),
(461,58,c),
(454,58,l),
(451,58,o),
(449,60,o),
(450,62,c),
(455,126,o),
(392,149,o),
(384,151,c),
(333,163,o),
(335,203,o),
(335,217,c),
(335,224,l),
(335,252,o),
(358,275,o),
(387,275,c),
(428,275,l),
(449,275,o),
(465,258,o),
(465,237,c)
);
},
{
closed = 1;
nodes = (
(693,69,l),
(747,71,o),
(790,115,o),
(790,169,c),
(790,249,l),
(790,272,o),
(772,289,o),
(750,289,c),
(465,289,l),
(465,290,l),
(50,290,l),
(28,290,o),
(10,272,o),
(10,250,c),
(10,185,l),
(10,163,o),
(28,145,o),
(50,145,c),
(297,145,l),
(311,145,o),
(324,144,o),
(335,142,c),
(339,142,o),
(342,141,o),
(345,141,c),
(437,125,o),
(436,75,o),
(434,61,c),
(433,59,o),
(432,58,o),
(430,58,c),
(339,58,l),
(337,58,o),
(335,59,o),
(335,62,c),
(335,81,l),
(335,84,o),
(333,86,o),
(330,86,c),
(15,86,l),
(13,86,o),
(10,84,o),
(10,81,c),
(10,19,l),
(10,16,o),
(13,14,o),
(15,14,c),
(330,14,l),
(333,14,o),
(335,16,o),
(335,19,c),
(335,39,l),
(335,41,o),
(337,43,o),
(339,43,c),
(461,43,l),
(464,43,o),
(465,41,o),
(465,39,c),
(465,5,l),
(465,2,o),
(468,0,o),
(470,0,c),
(785,0,l),
(788,0,o),
(790,2,o),
(790,5,c),
(790,18,l),
(790,40,o),
(772,58,o),
(750,58,c),
(530,58,l),
(530,65,l)
);
}
);
width = 800;
}
);
unicode = 1355;
},
{
glyphname = "Ra-arm";
lastChange = "2026-01-02 14:53:49 +0000";
layers = (
{
layerId = m01;
shapes = (
{
closed = 1;
nodes = (
(1089,82,l),
(1089,77,o),
(1084,72,o),
(1079,72,c),
(839,72,l),
(833,72,o),
(829,77,o),
(829,82,c),
(829,95,l),
(829,113,o),
(814,128,o),
(796,128,c),
(790,128,l),
(790,0,l),
(465,0,l),
(465,221,l),
(465,246,o),
(445,266,o),
(420,266,c),
(380,266,l),
(356,266,o),
(335,246,o),
(335,221,c),
(335,0,l),
(10,0,l),
(10,230,l),
(10,263,o),
(37,290,o),
(70,290,c),
(730,290,l),
(764,290,o),
(790,263,o),
(790,230,c),
(790,145,l),
(1059,145,l),
(1075,145,o),
(1089,131,o),
(1089,115,c)
);
}
);
width = 1099;
}
);
unicode = 1356;
},
{
glyphname = "Seh-arm";
lastChange = "2026-01-02 14:56:01 +0000";
layers = (
{
layerId = m01;
shapes = (
{
closed = 1;
nodes = (
(790,60,l),
(790,26,o),
(763,0,o),
(730,0,c),
(70,0,l),
(37,0,o),
(10,26,o),
(10,60,c),
(10,280,l),
(10,285,o),
(15,290,o),
(20,290,c),
(325,290,l),
(331,290,o),
(335,285,o),
(335,280,c),
(335,68,l),
(335,43,o),
(355,23,o),
(380,23,c),
(420,23,l),
(463,23,o),
(465,68,o),
(465,68,c),
(465,280,l),
(465,285,o),
(470,290,o),
(475,290,c),
(780,290,l),
(786,290,o),
(790,285,o),
(790,280,c)
);
}
);
width = 800;
}
);
unicode = 1357;
},
{
glyphname = "Vew-arm";
lastChange = "2026-01-02 16:38:58 +0000";
layers = (
{
layerId = m01;
shapes = (
{
closed = 1;
nodes = (
(833,-29,l),
(827,-29,o),
(823,-25,o),
(823,-19,c),
(824,-10,o),
(819,0,o),
(809,0,c),
(660,0,l),
(475,0,l),
(470,0,o),
(465,4,o),
(465,10,c),
(465,73,l),
(70,73,l),
(37,73,o),
(10,99,o),
(10,133,c),
(10,213,l),
(10,215,o),
(12,218,o),
(15,218,c),
(335,218,l),
(335,107,l),
(335,96,o),
(344,87,o),
(355,87,c),
(445,87,l),
(456,87,o),
(465,96,o),
(465,107,c),
(465,280,l),
(465,286,o),
(470,290,o),
(475,290,c),
(780,290,l),
(786,290,o),
(790,286,o),
(790,280,c),
(790,15,l),
(1040,15,l),
(1046,15,o),
(1050,10,o),
(1050,5,c),
(1049,-4,o),
(1055,-29,o),
(1040,-29,c)
);
}
);
width = 1060;
}
);
unicode = 1358;
},
{
glyphname = "Tiwn-arm";
lastChange = "2026-01-02 15:01:08 +0000";
layers = (
{
layerId = m01;
shapes = (
{
closed = 1;
nodes = (
(795,37,o),
(770,0,o),
(730,0,c),
(730,0,o),
(50,0,o),
(50,0,c),
(28,0,o),
(10,18,o),
(10,40,c),
(10,125,l),
(10,128,o),
(12,130,o),
(15,130,c),
(330,130,l),
(332,130,o),
(335,128,o),
(335,125,c),
(335,69,l),
(335,47,o),
(353,29,o),
(375,29,c),
(408,30,o),
(463,19,o),
(465,69,c),
(465,90,o),
(468,118,o),
(446,130,c),
(418,159,o),
(86,188,o),
(44,198,c),
(19,201,o),
(7,226,o),
(10,250,c),
(10,272,o),
(28,290,o),
(50,290,c),
(729,290,l),
(774,289,o),
(794,249,o),
(789,208,c),
(789,205,o),
(787,203,o),
(784,203,c),
(470,203,l),
(467,203,o),
(465,205,o),
(465,208,c),
(469,271,o),
(418,261,o),
(375,261,c),
(353,261,o),
(335,243,o),
(335,221,c),
(335,202,o),
(348,187,o),
(367,184,c),
(738,135,l),
(767,131,o),
(790,105,o),
(790,75,c)
);
}
);
width = 801;
}
);
unicode = 1359;
},
{
glyphname = "Reh-arm";
lastChange = "2026-01-02 15:01:23 +0000";
layers = (
{
layerId = m01;
shapes = (
{
closed = 1;
nodes = (
(790,97,l),
(790,91,o),
(785,87,o),
(780,87,c),
(475,87,l),
(470,87,o),
(465,91,o),
(465,97,c),
(465,261,l),
(465,269,o),
(459,275,o),
(451,275,c),
(350,275,l),
(346,275,o),
(342,274,o),
(340,271,c),
(337,269,o),
(335,265,o),
(335,261,c),
(335,0,l),
(10,0,l),
(10,240,l),
(10,268,o),
(33,290,o),
(60,290,c),
(730,290,l),
(763,290,o),
(790,263,o),
(790,230,c)
);
}
);
width = 800;
}
);
unicode = 1360;
},
{
glyphname = "Co-arm";
lastChange = "2026-01-02 15:01:43 +0000";
layers = (
{
layerId = m01;
shapes = (
{
closed = 1;
nodes = (
(353,257,o),
(362,261,o),
(372,261,c),
(429,261,l),
(449,261,o),
(465,245,o),
(465,225,c),
(465,215,o),
(461,206,o),
(455,199,c),
(454,199,o),
(454,198,o),
(453,198,c),
(447,192,o),
(438,188,o),
(429,188,c),
(372,188,l),
(363,188,o),
(354,192,o),
(348,198,c),
(340,204,o),
(336,214,o),
(336,225,c),
(336,235,o),
(340,244,o),
(346,250,c)
);
},
{
closed = 1;
nodes = (
(740,185,l),
(768,185,o),
(791,208,o),
(791,236,c),
(791,239,l),
(791,267,o),
(768,290,o),
(740,290,c),
(61,290,l),
(33,290,o),
(10,267,o),
(10,239,c),
(10,236,l),
(10,208,o),
(33,185,o),
(61,185,c),
(106,185,l),
(107,185,o),
(108,184,o),
(108,183,c),
(108,180,l),
(108,178,o),
(107,178,o),
(106,178,c),
(61,178,l),
(36,178,o),
(15,159,o),
(11,135,c),
(11,133,o),
(13,130,o),
(15,130,c),
(335,130,l),
(336,130,o),
(337,131,o),
(338,132,c),
(343,148,o),
(358,159,o),
(376,159,c),
(425,159,l),
(447,159,o),
(465,142,o),
(465,119,c),
(465,70,l),
(465,48,o),
(447,30,o),
(425,30,c),
(376,30,l),
(354,30,o),
(336,48,o),
(336,70,c),
(336,98,l),
(336,100,o),
(334,101,o),
(333,101,c),
(14,101,l),
(12,101,o),
(10,100,o),
(10,97,c),
(10,51,l),
(10,23,o),
(33,0,o),
(61,0,c),
(740,0,l),
(768,0,o),
(790,23,o),
(790,51,c),
(790,127,l),
(790,155,o),
(768,178,o),
(740,178,c),
(695,178,l),
(694,178,o),
(693,178,o),
(693,180,c),
(693,183,l),
(693,184,o),
(694,185,o),
(695,185,c)
);
}
);
width = 801;
}
);
unicode = 1361;
},
{
glyphname = "Yiwn-arm";
lastChange = "2026-01-02 15:01:56 +0000";
layers = (
{
layerId = m01;
shapes = (
{
closed = 1;
nodes = (
(855,159,l),
(855,145,l),
(485,145,l),
(475,145,o),
(466,153,o),
(465,163,c),
(464,171,o),
(462,181,o),
(456,188,c),
(448,197,o),
(437,203,o),
(425,203,c),
(349,203,l),
(345,203,o),
(342,201,o),
(339,199,c),
(337,196,o),
(335,192,o),
(335,188,c),
(335,10,l),
(335,4,o),
(331,0,o),
(325,0,c),
(20,0,l),
(14,0,o),
(10,4,o),
(10,10,c),
(10,280,l),
(10,285,o),
(14,290,o),
(20,290,c),
(325,290,l),
(331,290,o),
(335,285,o),
(335,280,c),
(335,221,l),
(335,219,o),
(337,217,o),
(339,217,c),
(750,217,l),
(772,217,o),
(790,200,o),
(790,177,c),
(790,174,l),
(790,170,o),
(792,166,o),
(794,164,c),
(797,161,o),
(800,159,o),
(804,159,c)
);
}
);
width = 865;
}
);
unicode = 1362;
},
{
glyphname = "Piwr-arm";
lastChange = "2026-01-02 15:02:12 +0000";
layers = (
{
layerId = m01;
shapes = (
{
closed = 1;
nodes = (
(855,113,l),
(855,90,o),
(837,73,o),
(815,73,c),
(768,73,l),
(762,73,o),
(758,77,o),
(758,83,c),
(758,208,l),
(758,213,o),
(762,218,o),
(768,218,c),
(815,218,l),
(837,218,o),
(855,200,o),
(855,178,c)
);
},
{
closed = 1;
nodes = (
(433,83,l),
(433,77,o),
(428,73,o),
(423,73,c),
(375,73,l),
(353,73,o),
(335,90,o),
(335,113,c),
(335,178,l),
(335,200,o),
(353,218,o),
(375,218,c),
(423,218,l),
(428,218,o),
(433,213,o),
(433,208,c)
);
},
{
closed = 1;
nodes = (
(758,247,l),
(758,280,l),
(758,286,o),
(753,290,o),
(748,290,c),
(443,290,l),
(437,290,o),
(433,286,o),
(433,280,c),
(433,247,l),
(50,247,l),
(28,247,o),
(10,229,o),
(10,207,c),
(10,84,l),
(10,61,o),
(28,44,o),
(50,44,c),
(433,44,l),
(433,10,l),
(433,5,o),
(437,0,o),
(443,0,c),
(748,0,l),
(753,0,o),
(758,5,o),
(758,10,c),
(758,44,l),
(1140,44,l),
(1162,44,o),
(1180,61,o),
(1180,84,c),
(1180,207,l),
(1180,229,o),
(1162,247,o),
(1140,247,c)
);
}
);
width = 1190;
}
);
unicode = 1363;
},
{
glyphname = "Keh-arm";
lastChange = "2026-01-02 15:02:24 +0000";
layers = (
{
layerId = m01;
shapes = (
{
closed = 1;
nodes = (
(530,247,l),
(530,255,o),
(533,262,o),
(538,267,c),
(544,272,o),
(551,276,o),
(559,276,c),
(631,276,l),
(647,276,o),
(660,263,o),
(660,247,c),
(660,189,l),
(660,181,o),
(657,173,o),
(651,168,c),
(646,163,o),
(639,160,o),
(631,160,c),
(540,160,l),
(534,160,o),
(530,164,o),
(530,170,c)
);
},
{
closed = 1;
nodes = (
(534,116,l),
(532,116,o),
(530,118,o),
(530,120,c),
(530,141,l),
(530,143,o),
(532,145,o),
(534,145,c),
(936,145,l),
(963,145,o),
(984,167,o),
(984,194,c),
(984,241,l),
(984,268,o),
(963,290,o),
(936,290,c),
(255,290,l),
(228,290,o),
(205,268,o),
(205,240,c),
(205,120,l),
(205,118,o),
(203,116,o),
(201,116,c),
(13,116,l),
(12,116,o),
(10,115,o),
(10,113,c),
(10,105,l),
(10,103,o),
(12,102,o),
(13,102,c),
(201,102,l),
(203,102,o),
(205,100,o),
(205,98,c),
(205,10,l),
(205,5,o),
(210,0,o),
(215,0,c),
(520,0,l),
(525,0,o),
(530,5,o),
(530,10,c),
(530,98,l),
(530,100,o),
(532,102,o),
(534,102,c),
(808,102,l),
(812,102,o),
(815,100,o),
(818,97,c),
(821,95,o),
(822,91,o),
(822,87,c),
(822,83,l),
(822,77,o),
(827,73,o),
(832,73,c),
(1040,73,l),
(1045,73,o),
(1050,77,o),
(1050,83,c),
(1050,106,l),
(1050,112,o),
(1045,116,o),
(1040,116,c)
);
}
);
width = 1060;
}
);
unicode = 1364;
},
{
glyphname = "Oh-arm";
lastChange = "2026-01-02 15:06:22 +0000";
layers = (
{
layerId = m01;
shapes = (
{
closed = 1;
nodes = (
(70,290,l),
(37,290,o),
(10,263,o),
(10,230,c),
(10,60,l),
(10,27,o),
(37,0,o),
(70,0,c),
(730,0,l),
(763,0,o),
(790,27,o),
(790,60,c),
(790,230,l),
(790,263,o),
(763,290,o),
(730,290,c)
);
},
{
closed = 1;
nodes = (
(465,69,l),
(465,44,o),
(465,24,o),
(423,24,c),
(377,24,l),
(335,24,o),
(335,44,o),
(335,69,c),
(335,221,l),
(335,246,o),
(335,266,o),
(377,266,c),
(423,266,l),
(465,266,o),
(465,246,o),
(465,221,c)
);
}
);
width = 800;
}
);
unicode = 1365;
},
{
glyphname = "Feh-arm";
lastChange = "2026-01-02 15:06:50 +0000";
layers = (
{
layerId = m01;
shapes = (
{
closed = 1;
nodes = (
(855,58,l),
(855,34,o),
(836,14,o),
(812,14,c),
(778,14,l),
(767,14,o),
(758,23,o),
(758,34,c),
(758,153,l),
(758,164,o),
(767,173,o),
(778,173,c),
(812,173,l),
(836,173,o),
(855,154,o),
(855,130,c)
);
},
{
closed = 1;
nodes = (
(433,208,l),
(433,197,o),
(424,188,o),
(413,188,c),
(379,188,l),
(355,188,o),
(335,208,o),
(335,232,c),
(335,244,o),
(340,255,o),
(348,263,c),
(356,270,o),
(367,275,o),
(379,275,c),
(413,275,l),
(424,275,o),
(433,266,o),
(433,255,c)
);
},
{
closed = 1;
nodes = (
(763,188,l),
(760,188,o),
(758,191,o),
(758,193,c),
(758,280,l),
(758,285,o),
(753,290,o),
(748,290,c),
(115,290,l),
(93,290,o),
(75,272,o),
(75,250,c),
(75,214,l),
(75,192,o),
(93,174,o),
(115,174,c),
(428,174,l),
(431,174,o),
(433,172,o),
(433,169,c),
(433,48,l),
(433,37,o),
(424,29,o),
(414,29,c),
(369,29,l),
(351,29,o),
(335,44,o),
(335,63,c),
(335,135,l),
(335,140,o),
(331,145,o),
(325,145,c),
(20,145,l),
(15,145,o),
(10,140,o),
(10,135,c),
(10,50,l),
(10,22,o),
(33,0,o),
(60,0,c),
(1100,0,l),
(1145,0,o),
(1180,36,o),
(1180,80,c),
(1180,108,l),
(1180,153,o),
(1145,188,o),
(1100,188,c)
);
}
);
width = 1190;
}
);
unicode = 1366;
},
{
glyphname = "ayb-arm";
lastChange = "2026-01-02 16:24:31 +0000";
layers = (
{
layerId = m01;
shapes = (
{
closed = 1;
nodes = (
(1082,10,l),
(1082,4,o),
(1078,0,o),
(1072,0,c),
(832,0,l),
(827,0,o),
(822,4,o),
(822,10,c),
(822,23,l),
(822,41,o),
(808,55,o),
(790,55,c),
(789,55,l),
(787,24,o),
(761,0,o),
(730,0,c),
(70,0,l),
(36,0,o),
(10,27,o),
(10,60,c),
(10,280,l),
(10,285,o),
(14,290,o),
(20,290,c),
(326,290,l),
(331,290,o),
(335,286,o),
(335,281,c),
(335,68,l),
(335,43,o),
(355,23,o),
(380,23,c),
(420,23,l),
(444,23,o),
(465,43,o),
(465,68,c),
(465,281,l),
(465,286,o),
(469,290,o),
(474,290,c),
(780,290,l),
(785,290,o),
(790,285,o),
(790,280,c),
(790,72,l),
(1052,72,l),
(1069,72,o),
(1082,59,o),
(1082,42,c)
);
}
);
width = 1092;
}
);
unicode = 1377;
},
{
glyphname = "ben-arm";
lastChange = "2026-01-02 16:29:03 +0000";
layers = (
{
layerId = m01;
shapes = (
{
closed = 1;
nodes = (
(465,262,l),
(465,270,o),
(459,276,o),
(451,276,c),
(350,276,l),
(346,276,o),
(342,274,o),
(339,272,c),
(337,269,o),
(335,266,o),
(335,262,c),
(335,102,l),
(730,102,l),
(763,102,o),
(790,75,o),
(790,42,c),
(790,39,l),
(790,34,o),
(786,29,o),
(780,29,c),
(475,29,l),
(470,29,o),
(465,34,o),
(465,39,c),
(465,73,l),
(465,81,o),
(459,88,o),
(451,88,c),
(350,88,l),
(346,88,o),
(342,86,o),
(339,83,c),
(337,81,o),
(335,77,o),
(335,73,c),
(335,10,l),
(335,4,o),
(331,0,o),
(325,0,c),
(20,0,l),
(15,0,o),
(10,4,o),
(10,10,c),
(10,231,l),
(10,264,o),
(37,291,o),
(70,291,c),
(730,291,l),
(763,291,o),
(790,264,o),
(790,231,c),
(790,155,l),
(790,150,o),
(786,145,o),
(780,145,c),
(475,145,l),
(470,145,o),
(465,150,o),
(465,155,c)
);
}
);
width = 800;
}
);
unicode = 1378;
},
{
glyphname = "gim-arm";
lastChange = "2026-01-02 16:31:32 +0000";
layers = (
{
layerId = m01;
shapes = (
{
closed = 1;
nodes = (
(465,149,l),
(465,140,o),
(461,132,o),
(456,126,c),
(450,120,o),
(442,116,o),
(433,116,c),
(368,116,l),
(359,116,o),
(350,120,o),
(345,126,c),
(339,132,o),
(335,140,o),
(335,149,c),
(335,243,l),
(335,252,o),
(339,260,o),
(345,266,c),
(350,272,o),
(359,276,o),
(368,276,c),
(433,276,l),
(442,276,o),
(450,272,o),
(456,266,c),
(461,260,o),
(465,252,o),
(465,243,c)
);
},
{
closed = 1;
nodes = (
(790,116,l),
(790,230,l),
(790,263,o),
(763,290,o),
(730,290,c),
(70,290,l),
(37,290,o),
(10,263,o),
(10,230,c),
(10,161,l),
(10,128,o),
(37,101,o),
(70,101,c),
(335,101,l),
(335,102,l),
(465,102,l),
(465,10,l),
(465,4,o),
(469,0,o),
(475,0,c),
(780,0,l),
(785,0,o),
(790,4,o),
(790,10,c),
(790,87,l),
(790,91,o),
(791,95,o),
(794,97,c),
(797,100,o),
(800,102,o),
(804,102,c),
(840,102,l),
(848,102,o),
(855,95,o),
(855,87,c),
(855,56,l),
(855,51,o),
(859,46,o),
(865,46,c),
(1071,46,l),
(1077,46,o),
(1081,51,o),
(1081,56,c),
(1081,86,l),
(1081,103,o),
(1068,116,o),
(1051,116,c)
);
}
);
width = 1091;
}
);
unicode = 1379;
},
{
glyphname = "da-arm";
lastChange = "2026-01-02 16:31:38 +0000";
layers = (
{
layerId = m01;
shapes = (
{
closed = 1;
nodes = (
(1081,71,l),
(1081,65,o),
(1077,61,o),
(1071,61,c),
(865,61,l),
(859,61,o),
(855,65,o),
(855,71,c),
(855,102,l),
(855,110,o),
(848,116,o),
(840,116,c),
(804,116,l),
(800,116,o),
(797,114,o),
(794,112,c),
(791,109,o),
(790,106,o),
(790,102,c),
(790,10,l),
(790,4,o),
(785,0,o),
(780,0,c),
(507,0,l),
(502,0,o),
(497,4,o),
(497,10,c),
(497,261,l),
(497,269,o),
(491,276,o),
(483,276,c),
(349,276,l),
(345,276,o),
(342,274,o),
(339,271,c),
(336,269,o),
(335,265,o),
(335,261,c),
(335,112,l),
(335,106,o),
(330,102,o),
(325,102,c),
(20,102,l),
(14,102,o),
(10,106,o),
(10,112,c),
(10,230,l),
(10,264,o),
(37,290,o),
(70,290,c),
(335,290,l),
(730,290,l),
(763,290,o),
(790,263,o),
(790,230,c),
(790,131,l),
(1051,131,l),
(1068,131,o),
(1081,117,o),
(1081,101,c)
);
}
);
width = 1091;
}
);
unicode = 1380;
},
{
glyphname = "ech-arm";
lastChange = "2026-01-02 16:31:44 +0000";
layers = (
{
layerId = m01;
shapes = (
{
closed = 1;
nodes = (
(465,170,l),
(465,177,o),
(463,183,o),
(459,188,c),
(458,190,o),
(457,192,o),
(455,193,c),
(449,199,o),
(441,203,o),
(432,203,c),
(349,203,l),
(345,203,o),
(341,201,o),
(339,199,c),
(336,196,o),
(335,192,o),
(335,188,c),
(335,29,l),
(335,21,o),
(341,14,o),
(349,14,c),
(450,14,l),
(454,14,o),
(458,16,o),
(460,19,c),
(463,21,o),
(465,25,o),
(465,29,c),
(465,77,l),
(465,82,o),
(469,87,o),
(475,87,c),
(747,87,l),
(753,87,o),
(757,82,o),
(757,77,c),
(757,60,l),
(757,27,o),
(730,0,o),
(697,0,c),
(70,0,l),
(36,0,o),
(10,27,o),
(10,60,c),
(10,280,l),
(10,285,o),
(14,290,o),
(20,290,c),
(326,290,l),
(331,290,o),
(335,286,o),
(335,281,c),
(335,217,l),
(697,217,l),
(730,217,o),
(757,191,o),
(757,157,c),
(757,155,l),
(757,149,o),
(753,145,o),
(747,145,c),
(475,145,l),
(469,145,o),
(465,149,o),
(465,155,c)
);
}
);
width = 767;
}
);
unicode = 1381;
},
{
glyphname = "za-arm";
lastChange = "2026-01-02 16:31:51 +0000";
layers = (
{
layerId = m01;
shapes = (
{
closed = 1;
nodes = (
(790,0,l),
(476,0,l),
(470,0,o),
(466,5,o),
(466,12,c),
(466,44,o),
(451,58,o),
(433,58,c),
(336,58,l),
(336,25,l),
(336,19,o),
(331,15,o),
(325,15,c),
(20,15,l),
(15,15,o),
(10,19,o),
(10,25,c),
(10,106,l),
(10,112,o),
(15,116,o),
(20,116,c),
(325,116,l),
(331,116,o),
(336,112,o),
(336,106,c),
(336,73,l),
(433,73,l),
(442,73,o),
(450,76,o),
(456,82,c),
(458,84,o),
(459,85,o),
(460,87,c),
(464,92,o),
(466,98,o),
(466,105,c),
(466,261,l),
(466,269,o),
(459,276,o),
(451,276,c),
(350,276,l),
(346,276,o),
(342,274,o),
(340,271,c),
(337,269,o),
(336,265,o),
(336,261,c),
(336,160,l),
(20,160,l),
(15,160,o),
(10,164,o),
(10,170,c),
(10,230,l),
(10,263,o),
(37,290,o),
(70,290,c),
(715,290,l),
(748,290,o),
(775,263,o),
(775,230,c),
(775,137,o),
(775,87,o),
(500,87,c),
(499,87,o),
(498,86,o),
(498,85,c),
(498,77,l),
(498,75,o),
(499,74,o),
(500,75,c),
(730,87,l),
(764,87,o),
(790,55,o),
(790,15,c)
);
}
);
width = 800;
}
);
unicode = 1382;
},
{
glyphname = "eh-arm";
lastChange = "2026-01-02 16:31:58 +0000";
layers = (
{
layerId = m01;
shapes = (
{
closed = 1;
nodes = (
(790,155,l),
(790,149,o),
(786,145,o),
(780,145,c),
(475,145,l),
(470,145,o),
(465,149,o),
(465,155,c),
(465,163,l),
(465,172,o),
(462,181,o),
(456,188,c),
(449,197,o),
(438,203,o),
(425,203,c),
(350,203,l),
(346,203,o),
(342,201,o),
(340,198,c),
(337,196,o),
(335,192,o),
(335,188,c),
(335,29,l),
(335,25,o),
(337,21,o),
(340,18,c),
(342,16,o),
(346,14,o),
(350,14,c),
(715,14,l),
(721,14,o),
(725,10,o),
(725,4,c),
(725,-19,l),
(725,-25,o),
(721,-29,o),
(715,-29,c),
(508,-29,l),
(502,-29,o),
(498,-25,o),
(498,-19,c),
(498,-15,l),
(498,-11,o),
(496,-7,o),
(494,-5,c),
(491,-2,o),
(487,0,o),
(483,0,c),
(20,0,l),
(15,0,o),
(10,4,o),
(10,10,c),
(10,280,l),
(10,285,o),
(15,290,o),
(20,290,c),
(325,290,l),
(331,290,o),
(335,285,o),
(335,280,c),
(335,217,l),
(730,217,l),
(764,217,o),
(790,190,o),
(790,157,c)
);
}
);
width = 800;
}
);
unicode = 1383;
},
{
glyphname = "et-arm";
lastChange = "2026-01-02 16:32:04 +0000";
layers = (
{
layerId = m01;
shapes = (
{
closed = 1;
nodes = (
(790,-19,l),
(790,-25,o),
(785,-29,o),
(780,-29,c),
(475,-29,l),
(469,-29,o),
(465,-25,o),
(465,-19,c),
(465,-5,o),
(459,0,o),
(450,0,cs),
(10,0,l),
(10,240,l),
(10,268,o),
(32,290,o),
(60,290,c),
(729,290,l),
(762,290,o),
(789,263,o),
(789,230,c),
(789,97,l),
(789,91,o),
(784,87,o),
(779,87,c),
(475,87,l),
(469,87,o),
(465,91,o),
(465,97,c),
(465,261,l),
(465,269,o),
(458,276,o),
(450,276,c),
(349,276,l),
(345,276,o),
(342,274,o),
(339,271,c),
(336,269,o),
(335,265,o),
(335,261,c),
(335,29,l),
(335,25,o),
(336,21,o),
(339,19,c),
(342,16,o),
(345,15,o),
(349,15,c),
(780,15,l),
(785,15,o),
(790,10,o),
(790,5,c)
);
}
);
width = 800;
}
);
unicode = 1384;
},
{
glyphname = "to-arm";
lastChange = "2026-01-02 16:32:12 +0000";
layers = (
{
layerId = m01;
shapes = (
{
closed = 1;
nodes = (
(595,29,l),
(595,21,o),
(588,15,o),
(580,15,c),
(544,15,l),
(533,15,o),
(514,24,o),
(514,87,c),
(514,154,o),
(535,160,o),
(544,160,c),
(580,160,l),
(588,160,o),
(595,153,o),
(595,145,c)
);
},
{
closed = 1;
nodes = (
(920,174,l),
(920,230,l),
(920,264,o),
(893,290,o),
(860,290,c),
(70,290,l),
(36,290,o),
(10,264,o),
(10,230,c),
(10,10,l),
(10,5,o),
(14,0,o),
(20,0,c),
(325,0,l),
(330,0,o),
(335,5,o),
(335,10,c),
(335,211,l),
(335,229,o),
(342,245,o),
(354,257,c),
(365,269,o),
(382,276,o),
(400,276,c),
(530,276,l),
(548,276,o),
(564,269,o),
(576,257,c),
(587,245,o),
(595,229,o),
(595,211,c),
(595,174,l),
(460,174,l),
(426,174,o),
(400,148,o),
(400,114,c),
(400,60,l),
(400,27,o),
(426,0,o),
(460,0,c),
(860,0,l),
(893,0,o),
(920,27,o),
(920,60,c),
(920,160,l),
(941,160,l),
(965,160,o),
(985,140,o),
(985,116,c),
(985,112,l),
(985,106,o),
(989,102,o),
(995,102,c),
(1170,102,l),
(1175,102,o),
(1180,106,o),
(1180,112,c),
(1180,114,l),
(1180,148,o),
(1153,174,o),
(1120,174,c)
);
}
);
width = 1190;
}
);
unicode = 1385;
},
{
glyphname = "zhe-arm";
lastChange = "2026-01-02 16:32:19 +0000";
layers = (
{
layerId = m01;
shapes = (
{
closed = 1;
nodes = (
(498,87,l),
(498,67,o),
(489,49,o),
(476,36,c),
(463,22,o),
(445,14,o),
(425,14,c),
(408,14,l),
(387,14,o),
(369,22,o),
(356,36,c),
(343,49,o),
(335,67,o),
(335,87,c),
(335,145,l),
(335,165,o),
(343,183,o),
(356,196,c),
(369,209,o),
(387,217,o),
(408,217,c),
(488,217,l),
(493,217,o),
(498,213,o),
(498,207,c)
);
},
{
closed = 1;
nodes = (
(823,217,l),
(823,280,l),
(823,285,o),
(818,290,o),
(813,290,c),
(508,290,l),
(502,290,o),
(498,285,o),
(498,280,c),
(498,232,l),
(70,232,l),
(37,232,o),
(10,205,o),
(10,172,c),
(10,60,l),
(10,27,o),
(37,0,o),
(70,0,c),
(335,0,l),
(763,0,l),
(796,0,o),
(823,27,o),
(823,60,c),
(823,203,l),
(844,203,l),
(868,203,o),
(888,183,o),
(888,159,c),
(888,151,l),
(888,146,o),
(892,141,o),
(898,141,c),
(1105,141,l),
(1111,141,o),
(1115,146,o),
(1115,151,c),
(1115,157,l),
(1115,191,o),
(1088,217,o),
(1055,217,c)
);
}
);
width = 1125;
}
);
unicode = 1386;
},
{
glyphname = "ini-arm";
lastChange = "2026-01-02 16:33:13 +0000";
layers = (
{
layerId = m01;
shapes = (
{
closed = 1;
nodes = (
(790,83,l),
(790,77,o),
(785,73,o),
(780,73,c),
(442,73,l),
(437,73,o),
(432,77,o),
(432,83,c),
(432,131,l),
(432,142,o),
(428,152,o),
(421,160,c),
(413,169,o),
(402,174,o),
(389,174,c),
(335,174,l),
(335,10,l),
(335,5,o),
(330,0,o),
(325,0,c),
(20,0,l),
(14,0,o),
(10,5,o),
(10,10,c),
(10,280,l),
(10,286,o),
(14,290,o),
(20,290,c),
(325,290,l),
(330,290,o),
(335,286,o),
(335,280,c),
(335,189,l),
(730,189,l),
(763,189,o),
(790,162,o),
(790,129,c)
);
}
);
width = 800;
}
);
unicode = 1387;
},
{
glyphname = "liwn-arm";
lastChange = "2026-01-02 16:34:25 +0000";
layers = (
{
layerId = m01;
shapes = (
{
closed = 1;
nodes = (
(628,-33,l),
(628,-39,o),
(623,-43,o),
(618,-43,c),
(410,-43,l),
(405,-43,o),
(400,-39,o),
(400,-33,c),
(400,-14,l),
(400,-10,o),
(399,-7,o),
(396,-4,c),
(393,-1,o),
(390,0,o),
(386,0,c),
(335,0,l),
(20,0,l),
(15,0,o),
(10,5,o),
(10,10,c),
(10,280,l),
(10,286,o),
(15,290,o),
(20,290,c),
(325,290,l),
(331,290,o),
(335,286,o),
(335,280,c),
(335,29,l),
(335,25,o),
(337,22,o),
(339,19,c),
(342,16,o),
(346,15,o),
(350,15,c),
(498,15,l),
(598,15,l),
(614,15,o),
(628,1,o),
(628,-15,c)
);
}
);
width = 638;
}
);
unicode = 1388;
},
{
glyphname = "xeh-arm";
lastChange = "2026-01-02 16:34:42 +0000";
layers = (
{
layerId = m01;
shapes = (
{
closed = 1;
nodes = (
(1115,60,l),
(1115,27,o),
(1088,0,o),
(1055,0,c),
(460,0,l),
(427,0,o),
(400,27,o),
(400,60,c),
(400,160,l),
(400,168,o),
(393,174,o),
(385,174,c),
(349,174,l),
(341,174,o),
(335,168,o),
(335,160,c),
(335,10,l),
(335,5,o),
(330,0,o),
(325,0,c),
(20,0,l),
(14,0,o),
(10,5,o),
(10,10,c),
(10,280,l),
(10,286,o),
(14,290,o),
(20,290,c),
(325,290,l),
(330,290,o),
(335,286,o),
(335,280,c),
(335,189,l),
(650,189,l),
(655,189,o),
(660,184,o),
(660,179,c),
(660,29,l),
(660,21,o),
(666,15,o),
(674,15,c),
(775,15,l),
(783,15,o),
(790,21,o),
(790,29,c),
(790,179,l),
(790,184,o),
(794,189,o),
(800,189,c),
(1105,189,l),
(1110,189,o),
(1115,184,o),
(1115,179,c)
);
}
);
width = 1125;
}
);
unicode = 1389;
},
{
glyphname = "ca-arm";
lastChange = "2026-01-02 16:34:50 +0000";
layers = (
{
layerId = m01;
shapes = (
{
closed = 1;
nodes = (
(595,58,l),
(595,46,o),
(591,35,o),
(583,27,c),
(575,19,o),
(564,14,o),
(552,14,c),
(509,14,l),
(485,14,o),
(465,34,o),
(465,58,c),
(465,174,l),
(465,186,o),
(470,197,o),
(478,205,c),
(486,213,o),
(497,217,o),
(509,217,c),
(552,217,l),
(576,217,o),
(595,198,o),
(595,174,c)
);
},
{
closed = 1;
nodes = (
(295,246,l),
(282,246,o),
(270,258,o),
(270,271,c),
(270,280,l),
(270,286,o),
(266,290,o),
(260,290,c),
(20,290,l),
(15,290,o),
(10,286,o),
(10,280,c),
(10,262,l),
(10,245,o),
(24,232,o),
(40,232,c),
(270,232,l),
(331,232,l),
(334,232,o),
(335,230,o),
(335,228,c),
(335,221,l),
(335,219,o),
(334,217,o),
(331,217,c),
(168,217,l),
(135,217,o),
(108,191,o),
(108,157,c),
(108,60,l),
(108,27,o),
(135,0,o),
(168,0,c),
(893,0,l),
(926,0,o),
(953,27,o),
(953,60,c),
(953,157,l),
(953,176,o),
(945,192,o),
(932,203,c),
(928,206,o),
(924,209,o),
(920,211,c),
(912,215,o),
(903,217,o),
(893,217,c),
(794,217,l),
(792,217,o),
(790,219,o),
(790,221,c),
(790,228,l),
(790,230,o),
(792,232,o),
(794,232,c),
(956,232,l),
(972,232,o),
(985,219,o),
(985,203,c),
(985,196,l),
(985,191,o),
(990,186,o),
(995,186,c),
(1236,186,l),
(1241,186,o),
(1246,191,o),
(1246,196,c),
(1246,216,l),
(1246,233,o),
(1232,246,o),
(1216,246,c)
);
}
);
width = 1256;
}
);
unicode = 1390;
},
{
glyphname = "ken-arm";
lastChange = "2026-01-02 16:35:21 +0000";
layers = (
{
layerId = m01;
shapes = (
{
closed = 1;
nodes = (
(790,10,l),
(790,5,o),
(785,0,o),
(780,0,c),
(475,0,l),
(469,0,o),
(465,5,o),
(465,10,c),
(465,63,l),
(465,68,o),
(460,73,o),
(455,73,c),
(70,73,l),
(36,73,o),
(10,100,o),
(10,133,c),
(10,280,l),
(10,286,o),
(14,290,o),
(20,290,c),
(325,290,l),
(330,290,o),
(335,286,o),
(335,280,c),
(335,146,l),
(335,141,o),
(335,135,o),
(336,131,c),
(343,106,o),
(366,87,o),
(393,87,c),
(455,87,l),
(460,87,o),
(465,92,o),
(465,97,c),
(465,208,l),
(465,213,o),
(469,218,o),
(475,218,c),
(780,218,l),
(785,218,o),
(790,213,o),
(790,208,c)
);
}
);
width = 800;
}
);
unicode = 1391;
},
{
glyphname = "ho-arm";
lastChange = "2026-01-02 16:35:29 +0000";
layers = (
{
layerId = m01;
shapes = (
{
closed = 1;
nodes = (
(790,10,l),
(790,5,o),
(785,0,o),
(780,0,c),
(475,0,l),
(469,0,o),
(465,4,o),
(465,10,c),
(465,91,l),
(465,91,o),
(465,92,o),
(465,92,c),
(464,114,o),
(446,131,o),
(425,131,c),
(367,131,l),
(367,145,l),
(425,145,l),
(446,145,o),
(464,163,o),
(465,184,c),
(465,184,o),
(465,185,o),
(465,185,c),
(465,236,l),
(465,236,o),
(465,237,o),
(465,237,c),
(464,259,o),
(446,276,o),
(425,276,c),
(375,276,l),
(353,276,o),
(335,258,o),
(335,236,c),
(335,199,l),
(335,193,o),
(330,189,o),
(325,189,c),
(20,189,l),
(14,189,o),
(10,193,o),
(10,199,c),
(10,250,l),
(10,273,o),
(28,290,o),
(50,290,c),
(725,290,l),
(757,290,o),
(789,282,o),
(789,250,c),
(789,185,l),
(789,155,o),
(757,145,o),
(725,145,c),
(693,145,l),
(693,131,l),
(725,131,l),
(757,131,o),
(790,107,o),
(790,71,c)
);
}
);
width = 800;
}
);
unicode = 1392;
},
{
glyphname = "ja-arm";
lastChange = "2026-01-02 16:35:35 +0000";
layers = (
{
layerId = m01;
shapes = (
{
closed = 1;
nodes = (
(79,39,l),
(45,39,o),
(29,86,o),
(62,104,c),
(109,129,o),
(173,63,o),
(189,47,c),
(193,44,o),
(191,39,o),
(186,39,c)
);
},
{
closed = 1;
nodes = (
(740,41,o),
(791,60,o),
(791,102,c),
(791,233,l),
(791,266,o),
(759,291,o),
(726,291,c),
(71,291,l),
(19,289,o),
(7,244,o),
(11,199,c),
(11,194,o),
(16,189,o),
(21,189,c),
(326,189,l),
(332,189,o),
(336,194,o),
(336,199,c),
(335,232,o),
(331,274,o),
(376,276,c),
(376,276,o),
(426,276,o),
(426,276,c),
(448,276,o),
(466,258,o),
(466,236,c),
(466,236,o),
(466,146,o),
(466,146,c),
(466,146,l),
(466,97,l),
(466,93,o),
(462,91,o),
(460,94,c),
(418,130,l),
(407,140,o),
(393,146,o),
(378,146,c),
(69,146,l),
(19,144,o),
(7,101,o),
(11,59,c),
(11,21,o),
(46,-4,o),
(82,1,c),
(82,1,o),
(364,1,o),
(364,1,c),
(367,1,o),
(370,1,o),
(373,2,c),
(429,28,l),
(432,29,o),
(435,28,o),
(438,26,c),
(463,3,l),
(465,2,o),
(468,1,o),
(470,1,c),
(787,1,l),
(789,1,o),
(791,2,o),
(791,5,c),
(791,26,l),
(791,28,o),
(789,30,o),
(787,30,c),
(712,30,l),
(710,30,o),
(710,33,o),
(712,34,c)
);
}
);
width = 801;
}
);
unicode = 1393;
},
{
glyphname = "ghad-arm";
lastChange = "2026-01-02 16:35:42 +0000";
layers = (
{
layerId = m01;
shapes = (
{
closed = 1;
nodes = (
(1083,-33,l),
(1083,-39,o),
(1078,-43,o),
(1073,-43,c),
(865,-43,l),
(860,-43,o),
(855,-39,o),
(855,-33,c),
(855,-14,l),
(855,-5,o),
(848,0,o),
(841,0,c),
(475,0,l),
(470,0,o),
(465,5,o),
(465,10,c),
(465,247,l),
(465,263,o),
(452,276,o),
(436,276,c),
(364,276,l),
(351,276,o),
(335,264,o),
(335,247,c),
(335,126,l),
(335,121,o),
(331,116,o),
(325,116,c),
(20,116,l),
(15,116,o),
(10,121,o),
(10,126,c),
(10,230,l),
(10,264,o),
(37,290,o),
(70,290,c),
(730,290,l),
(763,290,o),
(790,264,o),
(790,230,c),
(790,15,l),
(1053,15,l),
(1069,15,o),
(1083,1,o),
(1083,-15,c)
);
}
);
width = 1093;
}
);
unicode = 1394;
},
{
glyphname = "cheh-arm";
lastChange = "2026-01-02 16:35:51 +0000";
layers = (
{
layerId = m01;
shapes = (
{
closed = 1;
nodes = (
(378,30,l),
(372,30,o),
(368,34,o),
(368,40,c),
(368,163,l),
(368,174,o),
(374,184,o),
(384,192,c),
(394,199,o),
(409,204,o),
(425,204,c),
(430,204,o),
(436,203,o),
(441,201,c),
(450,199,o),
(458,195,o),
(465,190,c),
(491,173,o),
(506,143,o),
(506,112,c),
(506,40,l),
(506,34,o),
(502,30,o),
(496,30,c)
);
},
{
closed = 1;
nodes = (
(550,213,l),
(546,214,o),
(547,220,o),
(551,220,c),
(763,244,l),
(778,246,o),
(790,259,o),
(790,274,c),
(790,281,l),
(790,286,o),
(785,291,o),
(780,291,c),
(534,291,l),
(532,291,o),
(530,289,o),
(530,287,c),
(528,257,o),
(503,233,o),
(473,233,c),
(214,289,l),
(210,290,o),
(206,286,o),
(206,282,c),
(206,279,o),
(208,276,o),
(211,275,c),
(361,235,l),
(365,234,o),
(368,230,o),
(368,226,cs),
(368,222,o),
(364,218,o),
(360,217,c),
(62,182,l),
(33,178,o),
(10,152,o),
(10,122,c),
(10,60,l),
(10,27,o),
(37,0,o),
(70,0,c),
(780,0,l),
(786,0,o),
(790,5,o),
(790,10,c),
(790,100,l),
(790,127,o),
(772,151,o),
(747,158,c)
);
}
);
width = 800;
}
);
unicode = 1395;
},
{
glyphname = "men-arm";
lastChange = "2026-01-02 16:35:57 +0000";
layers = (
{
layerId = m01;
shapes = (
{
closed = 1;
nodes = (
(1088,228,l),
(1088,222,o),
(1083,218,o),
(1078,218,c),
(838,218,l),
(832,218,o),
(828,222,o),
(828,228,c),
(828,240,l),
(828,270,o),
(799,273,o),
(792,273,c),
(790,273,o),
(790,272,o),
(790,271,c),
(790,60,l),
(790,27,o),
(763,0,o),
(729,0,c),
(70,0,l),
(36,0,o),
(10,27,o),
(10,60,c),
(10,280,l),
(10,286,o),
(14,290,o),
(20,290,c),
(326,290,l),
(330,290,o),
(335,286,o),
(335,281,c),
(335,68,l),
(335,44,o),
(355,23,o),
(380,23,c),
(420,23,l),
(444,23,o),
(464,43,o),
(465,67,c),
(465,280,l),
(465,286,o),
(469,290,o),
(475,290,c),
(1058,290,l),
(1074,290,o),
(1088,277,o),
(1088,260,c)
);
}
);
width = 1098;
}
);
unicode = 1396;
},
{
glyphname = "yi-arm";
lastChange = "2026-01-02 16:36:09 +0000";
layers = (
{
layerId = m01;
shapes = (
{
closed = 1;
nodes = (
(693,145,l),
(734,146,o),
(785,150,o),
(788,95,c),
(789,54,o),
(793,2,o),
(738,0,c),
(738,0,o),
(71,0,o),
(71,0,c),
(18,1,o),
(7,46,o),
(11,91,c),
(11,97,o),
(15,101,o),
(21,101,c),
(326,101,l),
(354,99,o),
(309,23,o),
(374,15,c),
(375,15,o),
(427,14,o),
(428,15,c),
(476,18,o),
(465,72,o),
(466,105,c),
(466,111,o),
(464,118,o),
(461,124,c),
(447,151,o),
(414,144,o),
(390,145,c),
(336,145,l),
(336,159,l),
(446,159,l),
(457,159,o),
(466,168,o),
(466,179,c),
(465,213,o),
(477,274,o),
(426,275,c),
(393,274,o),
(339,285,o),
(336,236,c),
(335,234,o),
(336,200,o),
(336,197,c),
(335,192,o),
(331,188,o),
(326,188,c),
(21,188,l),
(15,188,o),
(11,193,o),
(11,198,c),
(12,232,o),
(0,288,o),
(51,290,c),
(51,290,o),
(741,290,o),
(741,290,c),
(768,290,o),
(791,267,o),
(791,240,c),
(796,158,o),
(763,157,o),
(693,159,c)
);
}
);
width = 801;
}
);
unicode = 1397;
},
{
glyphname = "now-arm";
lastChange = "2026-01-02 16:40:19 +0000";
layers = (
{
layerId = m01;
shapes = (
{
closed = 1;
nodes = (
(1088,145,l),
(1088,60,l),
(1088,26,o),
(1061,0,o),
(1028,0,c),
(368,0,l),
(335,0,o),
(308,26,o),
(308,60,c),
(308,217,l),
(40,217,l),
(23,217,o),
(10,231,o),
(10,247,c),
(10,280,l),
(10,285,o),
(14,290,o),
(20,290,c),
(260,290,l),
(265,290,o),
(270,285,o),
(270,280,c),
(270,267,l),
(270,249,o),
(284,234,o),
(302,234,c),
(623,234,l),
(629,234,o),
(633,230,o),
(633,224,c),
(633,68,l),
(633,43,o),
(653,23,o),
(678,23,c),
(718,23,l),
(743,23,o),
(763,43,o),
(763,68,c),
(763,135,l),
(763,140,o),
(768,145,o),
(773,145,c)
);
}
);
width = 1098;
}
);
unicode = 1398;
},
{
glyphname = "sha-arm";
lastChange = "2026-01-02 16:36:27 +0000";
layers = (
{
layerId = m01;
shapes = (
{
closed = 1;
nodes = (
(498,168,l),
(498,179,o),
(489,188,o),
(478,188,c),
(375,188,l),
(354,188,o),
(336,171,o),
(335,149,c),
(335,149,o),
(335,148,o),
(335,148,c),
(335,69,l),
(335,68,o),
(335,68,o),
(335,68,c),
(336,46,o),
(354,29,o),
(375,29,c),
(478,29,l),
(494,29,o),
(508,42,o),
(508,59,c),
(508,97,l),
(508,99,o),
(510,101,o),
(512,101,c),
(780,101,l),
(785,101,o),
(790,97,o),
(790,91,c),
(790,60,l),
(790,26,o),
(763,0,o),
(730,0,c),
(70,0,l),
(37,0,o),
(10,26,o),
(10,60,c),
(10,157,l),
(10,190,o),
(37,217,o),
(70,217,c),
(458,217,l),
(462,217,o),
(465,220,o),
(465,224,c),
(465,228,o),
(462,232,o),
(458,232,c),
(40,232,l),
(24,232,o),
(10,245,o),
(10,262,c),
(10,280,l),
(10,285,o),
(15,290,o),
(20,290,c),
(331,290,l),
(333,290,o),
(335,288,o),
(335,286,c),
(335,265,l),
(335,262,o),
(337,261,o),
(339,261,c),
(760,261,l),
(777,261,o),
(790,247,o),
(790,231,c),
(790,169,l),
(790,164,o),
(786,159,o),
(780,159,c),
(502,159,l),
(500,159,o),
(498,161,o),
(498,163,c)
);
}
);
width = 800;
}
);
unicode = 1399;
},
{
glyphname = "vo-arm";
lastChange = "2026-01-02 16:36:33 +0000";
layers = (
{
layerId = m01;
shapes = (
{
closed = 1;
nodes = (
(790,10,l),
(790,5,o),
(786,0,o),
(780,0,c),
(474,0,l),
(469,0,o),
(465,5,o),
(465,9,c),
(465,222,l),
(465,247,o),
(445,267,o),
(420,267,c),
(380,267,l),
(356,267,o),
(336,248,o),
(335,223,c),
(335,223,o),
(335,222,o),
(335,222,c),
(335,10,l),
(335,5,o),
(331,0,o),
(325,0,c),
(20,0,l),
(14,0,o),
(10,5,o),
(10,10,c),
(10,231,l),
(10,264,o),
(37,291,o),
(70,291,c),
(730,291,l),
(763,291,o),
(790,264,o),
(790,231,c)
);
}
);
width = 800;
}
);
unicode = 1400;
},
{
glyphname = "cha-arm";
lastChange = "2026-01-02 16:36:39 +0000";
layers = (
{
layerId = m01;
shapes = (
{
closed = 1;
nodes = (
(790,160,l),
(790,142,o),
(778,127,o),
(760,122,c),
(530,58,l),
(488,58,l),
(530,46,l),
(678,3,l),
(680,3,o),
(680,0,o),
(678,0,c),
(368,0,l),
(367,0,o),
(367,0,o),
(366,0,c),
(23,97,l),
(21,98,o),
(22,101,o),
(24,101,c),
(333,101,l),
(334,101,o),
(335,101,o),
(336,101,c),
(400,83,l),
(425,75,l),
(448,83,o),
(465,104,o),
(465,130,c),
(465,232,l),
(465,256,o),
(445,275,o),
(421,275,c),
(378,275,l),
(355,275,o),
(335,257,o),
(335,232,c),
(335,169,l),
(335,163,o),
(330,159,o),
(325,159,c),
(20,159,l),
(14,159,o),
(10,163,o),
(10,169,c),
(10,250,l),
(10,272,o),
(27,290,o),
(50,290,c),
(750,290,l),
(772,290,o),
(790,272,o),
(790,250,c)
);
}
);
width = 800;
}
);
unicode = 1401;
},
{
glyphname = "peh-arm";
lastChange = "2026-01-02 16:36:47 +0000";
layers = (
{
layerId = m01;
shapes = (
{
closed = 1;
nodes = (
(790,10,l),
(790,4,o),
(785,0,o),
(780,0,c),
(507,0,l),
(502,0,o),
(497,4,o),
(497,10,c),
(497,234,l),
(497,250,o),
(484,263,o),
(468,263,c),
(461,263,l),
(445,263,o),
(432,250,o),
(432,234,c),
(432,234,o),
(432,234,o),
(432,99,c),
(432,93,o),
(428,89,o),
(422,89,c),
(312,89,l),
(307,89,o),
(302,93,o),
(302,99,c),
(302,234,l),
(302,250,o),
(289,263,o),
(273,263,c),
(266,263,l),
(250,263,o),
(237,250,o),
(237,234,c),
(237,201,l),
(237,195,o),
(233,191,o),
(227,191,c),
(20,191,l),
(14,191,o),
(10,195,o),
(10,201,c),
(10,232,l),
(10,265,o),
(37,292,o),
(70,292,c),
(730,292,l),
(763,292,o),
(790,265,o),
(790,232,c)
);
}
);
width = 800;
}
);
unicode = 1402;
},
{
glyphname = "jheh-arm";
lastChange = "2026-01-02 16:36:53 +0000";
layers = (
{
layerId = m01;
shapes = (
{
closed = 1;
nodes = (
(465,62,l),
(465,59,o),
(464,58,o),
(461,58,c),
(454,58,l),
(451,58,o),
(449,60,o),
(450,62,c),
(455,126,o),
(392,149,o),
(384,151,c),
(333,163,o),
(335,203,o),
(335,217,c),
(335,224,l),
(335,252,o),
(358,275,o),
(387,275,c),
(428,275,l),
(449,275,o),
(465,258,o),
(465,237,c)
);
},
{
closed = 1;
nodes = (
(693,69,l),
(747,71,o),
(790,115,o),
(790,169,c),
(790,249,l),
(790,272,o),
(772,289,o),
(750,289,c),
(465,289,l),
(465,290,l),
(50,290,l),
(28,290,o),
(10,272,o),
(10,250,c),
(10,185,l),
(10,163,o),
(28,145,o),
(50,145,c),
(297,145,l),
(311,145,o),
(324,144,o),
(335,142,c),
(339,142,o),
(342,141,o),
(345,141,c),
(437,125,o),
(436,75,o),
(434,61,c),
(433,59,o),
(432,58,o),
(430,58,c),
(339,58,l),
(337,58,o),
(335,59,o),
(335,62,c),
(335,81,l),
(335,84,o),
(333,86,o),
(330,86,c),
(15,86,l),
(13,86,o),
(10,84,o),
(10,81,c),
(10,19,l),
(10,16,o),
(13,14,o),
(15,14,c),
(330,14,l),
(333,14,o),
(335,16,o),
(335,19,c),
(335,39,l),
(335,41,o),
(337,43,o),
(339,43,c),
(461,43,l),
(464,43,o),
(465,41,o),
(465,39,c),
(465,5,l),
(465,2,o),
(468,0,o),
(470,0,c),
(785,0,l),
(788,0,o),
(790,2,o),
(790,5,c),
(790,18,l),
(790,40,o),
(772,58,o),
(750,58,c),
(530,58,l),
(530,65,l)
);
}
);
width = 800;
}
);
unicode = 1403;
},
{
glyphname = "ra-arm";
lastChange = "2026-01-02 16:37:01 +0000";
layers = (
{
layerId = m01;
shapes = (
{
closed = 1;
nodes = (
(1089,82,l),
(1089,77,o),
(1084,72,o),
(1079,72,c),
(839,72,l),
(833,72,o),
(829,77,o),
(829,82,c),
(829,95,l),
(829,113,o),
(814,128,o),
(796,128,c),
(790,128,l),
(790,0,l),
(465,0,l),
(465,221,l),
(465,246,o),
(445,266,o),
(420,266,c),
(380,266,l),
(356,266,o),
(335,246,o),
(335,221,c),
(335,0,l),
(10,0,l),
(10,230,l),
(10,263,o),
(37,290,o),
(70,290,c),
(730,290,l),
(764,290,o),
(790,263,o),
(790,230,c),
(790,145,l),
(1059,145,l),
(1075,145,o),
(1089,131,o),
(1089,115,c)
);
}
);
width = 1099;
}
);
unicode = 1404;
},
{
glyphname = "seh-arm";
lastChange = "2026-01-02 16:37:08 +0000";
layers = (
{
layerId = m01;
shapes = (
{
closed = 1;
nodes = (
(790,60,l),
(790,26,o),
(763,0,o),
(730,0,c),
(70,0,l),
(37,0,o),
(10,26,o),
(10,60,c),
(10,280,l),
(10,285,o),
(15,290,o),
(20,290,c),
(325,290,l),
(331,290,o),
(335,285,o),
(335,280,c),
(335,68,l),
(335,43,o),
(355,23,o),
(380,23,c),
(420,23,l),
(463,23,o),
(465,68,o),
(465,68,c),
(465,280,l),
(465,285,o),
(470,290,o),
(475,290,c),
(780,290,l),
(786,290,o),
(790,285,o),
(790,280,c)
);
}
);
width = 800;
}
);
unicode = 1405;
},
{
glyphname = "vew-arm";
lastChange = "2026-01-02 16:37:15 +0000";
layers = (
{
layerId = m01;
shapes = (
{
closed = 1;
nodes = (
(833,-29,l),
(827,-29,o),
(823,-25,o),
(823,-19,c),
(824,-10,o),
(819,0,o),
(809,0,c),
(660,0,l),
(475,0,l),
(470,0,o),
(465,4,o),
(465,10,c),
(465,73,l),
(70,73,l),
(37,73,o),
(10,99,o),
(10,133,c),
(10,213,l),
(10,215,o),
(12,218,o),
(15,218,c),
(335,218,l),
(335,107,l),
(335,96,o),
(344,87,o),
(355,87,c),
(445,87,l),
(456,87,o),
(465,96,o),
(465,107,c),
(465,280,l),
(465,286,o),
(470,290,o),
(475,290,c),
(780,290,l),
(786,290,o),
(790,286,o),
(790,280,c),
(790,15,l),
(1040,15,l),
(1046,15,o),
(1050,10,o),
(1050,5,c),
(1049,-4,o),
(1055,-29,o),
(1040,-29,c)
);
}
);
width = 1060;
}
);
unicode = 1406;
},
{
glyphname = "tiwn-arm";
lastChange = "2026-01-02 16:37:29 +0000";
layers = (
{
layerId = m01;
shapes = (
{
closed = 1;
nodes = (
(795,37,o),
(770,0,o),
(730,0,c),
(730,0,o),
(50,0,o),
(50,0,c),
(28,0,o),
(10,18,o),
(10,40,c),
(10,125,l),
(10,128,o),
(12,130,o),
(15,130,c),
(330,130,l),
(332,130,o),
(335,128,o),
(335,125,c),
(335,69,l),
(335,47,o),
(353,29,o),
(375,29,c),
(408,30,o),
(463,19,o),
(465,69,c),
(465,90,o),
(468,118,o),
(446,130,c),
(418,159,o),
(86,188,o),
(44,198,c),
(19,201,o),
(7,226,o),
(10,250,c),
(10,272,o),
(28,290,o),
(50,290,c),
(729,290,l),
(774,289,o),
(794,249,o),
(789,208,c),
(789,205,o),
(787,203,o),
(784,203,c),
(470,203,l),
(467,203,o),
(465,205,o),
(465,208,c),
(469,271,o),
(418,261,o),
(375,261,c),
(353,261,o),
(335,243,o),
(335,221,c),
(335,202,o),
(348,187,o),
(367,184,c),
(738,135,l),
(767,131,o),
(790,105,o),
(790,75,c)
);
}
);
width = 801;
}
);
unicode = 1407;
},
{
glyphname = "reh-arm";
lastChange = "2026-01-02 16:37:45 +0000";
layers = (
{
layerId = m01;
shapes = (
{
closed = 1;
nodes = (
(790,97,l),
(790,91,o),
(785,87,o),
(780,87,c),
(475,87,l),
(470,87,o),
(465,91,o),
(465,97,c),
(465,261,l),
(465,269,o),
(459,275,o),
(451,275,c),
(350,275,l),
(346,275,o),
(342,274,o),
(340,271,c),
(337,269,o),
(335,265,o),
(335,261,c),
(335,0,l),
(10,0,l),
(10,240,l),
(10,268,o),
(33,290,o),
(60,290,c),
(730,290,l),
(763,290,o),
(790,263,o),
(790,230,c)
);
}
);
width = 800;
}
);
unicode = 1408;
},
{
glyphname = "co-arm";
lastChange = "2026-01-02 16:37:52 +0000";
layers = (
{
layerId = m01;
shapes = (
{
closed = 1;
nodes = (
(353,257,o),
(362,261,o),
(372,261,c),
(429,261,l),
(449,261,o),
(465,245,o),
(465,225,c),
(465,215,o),
(461,206,o),
(455,199,c),
(454,199,o),
(454,198,o),
(453,198,c),
(447,192,o),
(438,188,o),
(429,188,c),
(372,188,l),
(363,188,o),
(354,192,o),
(348,198,c),
(340,204,o),
(336,214,o),
(336,225,c),
(336,235,o),
(340,244,o),
(346,250,c)
);
},
{
closed = 1;
nodes = (
(740,185,l),
(768,185,o),
(791,208,o),
(791,236,c),
(791,239,l),
(791,267,o),
(768,290,o),
(740,290,c),
(61,290,l),
(33,290,o),
(10,267,o),
(10,239,c),
(10,236,l),
(10,208,o),
(33,185,o),
(61,185,c),
(106,185,l),
(107,185,o),
(108,184,o),
(108,183,c),
(108,180,l),
(108,178,o),
(107,178,o),
(106,178,c),
(61,178,l),
(36,178,o),
(15,159,o),
(11,135,c),
(11,133,o),
(13,130,o),
(15,130,c),
(335,130,l),
(336,130,o),
(337,131,o),
(338,132,c),
(343,148,o),
(358,159,o),
(376,159,c),
(425,159,l),
(447,159,o),
(465,142,o),
(465,119,c),
(465,70,l),
(465,48,o),
(447,30,o),
(425,30,c),
(376,30,l),
(354,30,o),
(336,48,o),
(336,70,c),
(336,98,l),
(336,100,o),
(334,101,o),
(333,101,c),
(14,101,l),
(12,101,o),
(10,100,o),
(10,97,c),
(10,51,l),
(10,23,o),
(33,0,o),
(61,0,c),
(740,0,l),
(768,0,o),
(790,23,o),
(790,51,c),
(790,127,l),
(790,155,o),
(768,178,o),
(740,178,c),
(695,178,l),
(694,178,o),
(693,178,o),
(693,180,c),
(693,183,l),
(693,184,o),
(694,185,o),
(695,185,c)
);
}
);
width = 801;
}
);
unicode = 1409;
},
{
glyphname = "yiwn-arm";
lastChange = "2026-01-02 16:37:59 +0000";
layers = (
{
layerId = m01;
shapes = (
{
closed = 1;
nodes = (
(855,159,l),
(855,145,l),
(485,145,l),
(475,145,o),
(466,153,o),
(465,163,c),
(464,171,o),
(462,181,o),
(456,188,c),
(448,197,o),
(437,203,o),
(425,203,c),
(349,203,l),
(345,203,o),
(342,201,o),
(339,199,c),
(337,196,o),
(335,192,o),
(335,188,c),
(335,10,l),
(335,4,o),
(331,0,o),
(325,0,c),
(20,0,l),
(14,0,o),
(10,4,o),
(10,10,c),
(10,280,l),
(10,285,o),
(14,290,o),
(20,290,c),
(325,290,l),
(331,290,o),
(335,285,o),
(335,280,c),
(335,221,l),
(335,219,o),
(337,217,o),
(339,217,c),
(750,217,l),
(772,217,o),
(790,200,o),
(790,177,c),
(790,174,l),
(790,170,o),
(792,166,o),
(794,164,c),
(797,161,o),
(800,159,o),
(804,159,c)
);
}
);
width = 865;
}
);
unicode = 1410;
},
{
glyphname = "piwr-arm";
lastChange = "2026-01-02 16:38:13 +0000";
layers = (
{
layerId = m01;
shapes = (
{
closed = 1;
nodes = (
(855,113,l),
(855,90,o),
(837,73,o),
(815,73,c),
(768,73,l),
(762,73,o),
(758,77,o),
(758,83,c),
(758,208,l),
(758,213,o),
(762,218,o),
(768,218,c),
(815,218,l),
(837,218,o),
(855,200,o),
(855,178,c)
);
},
{
closed = 1;
nodes = (
(433,83,l),
(433,77,o),
(428,73,o),
(423,73,c),
(375,73,l),
(353,73,o),
(335,90,o),
(335,113,c),
(335,178,l),
(335,200,o),
(353,218,o),
(375,218,c),
(423,218,l),
(428,218,o),
(433,213,o),
(433,208,c)
);
},
{
closed = 1;
nodes = (
(758,247,l),
(758,280,l),
(758,286,o),
(753,290,o),
(748,290,c),
(443,290,l),
(437,290,o),
(433,286,o),
(433,280,c),
(433,247,l),
(50,247,l),
(28,247,o),
(10,229,o),
(10,207,c),
(10,84,l),
(10,61,o),
(28,44,o),
(50,44,c),
(433,44,l),
(433,10,l),
(433,5,o),
(437,0,o),
(443,0,c),
(748,0,l),
(753,0,o),
(758,5,o),
(758,10,c),
(758,44,l),
(1140,44,l),
(1162,44,o),
(1180,61,o),
(1180,84,c),
(1180,207,l),
(1180,229,o),
(1162,247,o),
(1140,247,c)
);
}
);
width = 1190;
}
);
unicode = 1411;
},
{
glyphname = "keh-arm";
lastChange = "2026-01-02 16:38:19 +0000";
layers = (
{
layerId = m01;
shapes = (
{
closed = 1;
nodes = (
(530,247,l),
(530,255,o),
(533,262,o),
(538,267,c),
(544,272,o),
(551,276,o),
(559,276,c),
(631,276,l),
(647,276,o),
(660,263,o),
(660,247,c),
(660,189,l),
(660,181,o),
(657,173,o),
(651,168,c),
(646,163,o),
(639,160,o),
(631,160,c),
(540,160,l),
(534,160,o),
(530,164,o),
(530,170,c)
);
},
{
closed = 1;
nodes = (
(534,116,l),
(532,116,o),
(530,118,o),
(530,120,c),
(530,141,l),
(530,143,o),
(532,145,o),
(534,145,c),
(936,145,l),
(963,145,o),
(984,167,o),
(984,194,c),
(984,241,l),
(984,268,o),
(963,290,o),
(936,290,c),
(255,290,l),
(228,290,o),
(205,268,o),
(205,240,c),
(205,120,l),
(205,118,o),
(203,116,o),
(201,116,c),
(13,116,l),
(12,116,o),
(10,115,o),
(10,113,c),
(10,105,l),
(10,103,o),
(12,102,o),
(13,102,c),
(201,102,l),
(203,102,o),
(205,100,o),
(205,98,c),
(205,10,l),
(205,5,o),
(210,0,o),
(215,0,c),
(520,0,l),
(525,0,o),
(530,5,o),
(530,10,c),
(530,98,l),
(530,100,o),
(532,102,o),
(534,102,c),
(808,102,l),
(812,102,o),
(815,100,o),
(818,97,c),
(821,95,o),
(822,91,o),
(822,87,c),
(822,83,l),
(822,77,o),
(827,73,o),
(832,73,c),
(1040,73,l),
(1045,73,o),
(1050,77,o),
(1050,83,c),
(1050,106,l),
(1050,112,o),
(1045,116,o),
(1040,116,c)
);
}
);
width = 1060;
}
);
unicode = 1412;
},
{
glyphname = "oh-arm";
lastChange = "2026-01-02 16:38:27 +0000";
layers = (
{
layerId = m01;
shapes = (
{
closed = 1;
nodes = (
(70,290,l),
(37,290,o),
(10,263,o),
(10,230,c),
(10,60,l),
(10,27,o),
(37,0,o),
(70,0,c),
(730,0,l),
(763,0,o),
(790,27,o),
(790,60,c),
(790,230,l),
(790,263,o),
(763,290,o),
(730,290,c)
);
},
{
closed = 1;
nodes = (
(465,69,l),
(465,44,o),
(465,24,o),
(423,24,c),
(377,24,l),
(335,24,o),
(335,44,o),
(335,69,c),
(335,221,l),
(335,246,o),
(335,266,o),
(377,266,c),
(423,266,l),
(465,266,o),
(465,246,o),
(465,221,c)
);
}
);
width = 800;
}
);
unicode = 1413;
},
{
glyphname = "feh-arm";
lastChange = "2026-01-02 16:38:34 +0000";
layers = (
{
layerId = m01;
shapes = (
{
closed = 1;
nodes = (
(855,58,l),
(855,34,o),
(836,14,o),
(812,14,c),
(778,14,l),
(767,14,o),
(758,23,o),
(758,34,c),
(758,153,l),
(758,164,o),
(767,173,o),
(778,173,c),
(812,173,l),
(836,173,o),
(855,154,o),
(855,130,c)
);
},
{
closed = 1;
nodes = (
(433,208,l),
(433,197,o),
(424,188,o),
(413,188,c),
(379,188,l),
(355,188,o),
(335,208,o),
(335,232,c),
(335,244,o),
(340,255,o),
(348,263,c),
(356,270,o),
(367,275,o),
(379,275,c),
(413,275,l),
(424,275,o),
(433,266,o),
(433,255,c)
);
},
{
closed = 1;
nodes = (
(763,188,l),
(760,188,o),
(758,191,o),
(758,193,c),
(758,280,l),
(758,285,o),
(753,290,o),
(748,290,c),
(115,290,l),
(93,290,o),
(75,272,o),
(75,250,c),
(75,214,l),
(75,192,o),
(93,174,o),
(115,174,c),
(428,174,l),
(431,174,o),
(433,172,o),
(433,169,c),
(433,48,l),
(433,37,o),
(424,29,o),
(414,29,c),
(369,29,l),
(351,29,o),
(335,44,o),
(335,63,c),
(335,135,l),
(335,140,o),
(331,145,o),
(325,145,c),
(20,145,l),
(15,145,o),
(10,140,o),
(10,135,c),
(10,50,l),
(10,22,o),
(33,0,o),
(60,0,c),
(1100,0,l),
(1145,0,o),
(1180,36,o),
(1180,80,c),
(1180,108,l),
(1180,153,o),
(1145,188,o),
(1100,188,c)
);
}
);
width = 1190;
}
);
unicode = 1414;
},
{
glyphname = "ech_yiwn-arm";
lastChange = "2026-01-02 16:24:15 +0000";
layers = (
{
layerId = m01;
shapes = (
{
closed = 1;
nodes = (
(1083,-19,l),
(1083,-25,o),
(1078,-29,o),
(1073,-29,c),
(865,-29,l),
(860,-29,o),
(855,-25,o),
(855,-19,c),
(855,-15,l),
(855,-11,o),
(853,-7,o),
(851,-4,c),
(848,-2,o),
(845,0,o),
(841,0,c),
(70,0,l),
(37,0,o),
(10,27,o),
(10,60,c),
(10,280,l),
(10,285,o),
(15,290,o),
(20,290,c),
(325,290,l),
(331,290,o),
(335,285,o),
(335,280,c),
(335,68,l),
(335,44,o),
(355,23,o),
(380,23,c),
(420,23,l),
(445,23,o),
(465,44,o),
(465,68,c),
(465,207,l),
(465,213,o),
(470,217,o),
(475,217,c),
(780,217,l),
(786,217,o),
(790,213,o),
(790,207,c),
(790,19,l),
(790,17,o),
(792,14,o),
(795,14,c),
(1073,14,l),
(1078,14,o),
(1083,10,o),
(1083,4,c)
);
}
);
width = 1093;
}
);
unicode = 1415;
},
{
export = 0;
glyphname = zero;
lastChange = "2026-01-02 17:00:08 +0000";
layers = (
{
layerId = m01;
shapes = (
{
closed = 1;
nodes = (
(323,95,l),
(323,64,o),
(298,38,o),
(266,38,c),
(195,38,l),
(164,38,o),
(138,64,o),
(138,95,c),
(138,195,l),
(138,227,o),
(164,252,o),
(195,252,c),
(266,252,l),
(298,252,o),
(323,227,o),
(323,195,c)
);
},
{
closed = 1;
nodes = (
(67,290,l),
(36,290,o),
(10,265,o),
(10,234,c),
(10,57,l),
(10,25,o),
(36,0,o),
(67,0,c),
(394,0,l),
(426,0,o),
(451,25,o),
(451,57,c),
(451,234,l),
(451,265,o),
(426,290,o),
(394,290,c)
);
}
);
width = 461;
}
);
unicode = 48;
},
{
export = 0;
glyphname = one;
lastChange = "2026-01-02 17:00:08 +0000";
layers = (
{
layerId = m01;
shapes = (
{
closed = 1;
nodes = (
(107,290,l),
(10,207,l),
(10,173,l),
(34,173,l),
(34,0,l),
(142,0,l),
(142,290,l)
);
}
);
width = 152;
}
);
unicode = 49;
},
{
export = 0;
glyphname = two;
lastChange = "2026-01-02 17:00:08 +0000";
layers = (
{
layerId = m01;
shapes = (
{
closed = 1;
nodes = (
(212,87,l),
(420,87,l),
(420,0,l),
(22,0,l),
(22,65,l),
(79,87,l),
(278,165,l),
(292,170,o),
(301,183,o),
(301,197,c),
(301,228,o),
(275,254,o),
(244,254,c),
(186,254,l),
(155,254,o),
(130,228,o),
(130,197,c),
(130,173,l),
(10,173,l),
(10,234,l),
(10,265,o),
(35,290,o),
(67,290,c),
(364,290,l),
(395,290,o),
(420,265,o),
(420,234,c),
(420,202,l),
(420,184,o),
(410,169,o),
(394,162,c)
);
}
);
width = 430;
}
);
unicode = 50;
},
{
export = 0;
glyphname = three;
lastChange = "2026-01-02 17:00:08 +0000";
layers = (
{
layerId = m01;
shapes = (
{
closed = 1;
nodes = (
(436,56,l),
(436,25,o),
(410,0,o),
(379,0,c),
(67,0,l),
(35,0,o),
(10,25,o),
(10,56,c),
(10,87,l),
(141,87,l),
(141,85,o),
(139,66,o),
(154,51,c),
(162,43,o),
(173,38,o),
(185,38,c),
(272,38,l),
(296,38,o),
(316,58,o),
(316,82,c),
(316,94,o),
(311,105,o),
(303,113,c),
(295,121,o),
(284,126,o),
(272,126,c),
(205,126,l),
(205,173,l),
(270,173,l),
(292,173,o),
(310,191,o),
(310,214,c),
(310,225,o),
(306,235,o),
(299,242,c),
(291,250,o),
(281,254,o),
(270,254,c),
(176,254,l),
(153,254,o),
(135,236,o),
(135,214,c),
(135,212,o),
(135,211,o),
(135,210,c),
(24,210,l),
(24,234,l),
(24,265,o),
(49,290,o),
(80,290,c),
(365,290,l),
(397,290,o),
(422,265,o),
(422,234,c),
(422,205,l),
(422,174,o),
(397,148,o),
(365,148,c),
(379,148,l),
(410,148,o),
(436,123,o),
(436,92,c)
);
}
);
width = 446;
}
);
unicode = 51;
},
{
export = 0;
glyphname = four;
lastChange = "2026-01-02 17:00:08 +0000";
layers = (
{
layerId = m01;
shapes = (
{
closed = 1;
nodes = (
(317,290,l),
(10,114,l),
(10,62,l),
(263,62,l),
(263,0,l),
(371,0,l),
(371,62,l),
(437,62,l),
(437,114,l),
(371,114,l),
(371,290,l)
);
},
{
closed = 1;
nodes = (
(256,205,l),
(256,114,l),
(97,114,l)
);
}
);
width = 447;
}
);
unicode = 52;
},
{
export = 0;
glyphname = five;
lastChange = "2026-01-02 17:00:08 +0000";
layers = (
{
layerId = m01;
shapes = (
{
closed = 1;
nodes = (
(415,57,l),
(415,25,o),
(390,0,o),
(359,0,c),
(89,0,l),
(46,0,o),
(10,35,o),
(10,78,c),
(145,78,l),
(145,58,l),
(145,52,o),
(149,47,o),
(155,47,c),
(273,47,l),
(289,47,o),
(302,60,o),
(302,76,c),
(302,120,l),
(302,136,o),
(289,149,o),
(273,149,c),
(145,149,l),
(95,149,o),
(71,119,o),
(71,119,c),
(21,119,l),
(49,291,l),
(393,291,l),
(393,220,l),
(83,220,l),
(77,172,l),
(87,180,o),
(99,184,o),
(112,184,c),
(359,184,l),
(390,184,o),
(415,159,o),
(415,127,c)
);
}
);
width = 425;
}
);
unicode = 53;
},
{
export = 0;
glyphname = six;
lastChange = "2026-01-02 17:00:08 +0000";
layers = (
{
layerId = m01;
shapes = (
{
closed = 1;
nodes = (
(266,134,l),
(282,134,o),
(294,122,o),
(294,106,c),
(294,79,l),
(294,63,o),
(282,50,o),
(266,50,c),
(147,50,l),
(131,50,o),
(119,63,o),
(119,79,c),
(119,106,l),
(119,122,o),
(131,134,o),
(147,134,c)
);
},
{
closed = 1;
nodes = (
(424,210,l),
(424,234,l),
(424,265,o),
(399,290,o),
(367,290,c),
(66,290,l),
(35,290,o),
(10,265,o),
(10,234,c),
(10,56,l),
(10,25,o),
(35,0,o),
(66,0,c),
(373,0,l),
(405,0,o),
(430,25,o),
(430,56,c),
(430,117,l),
(430,146,o),
(409,170,o),
(381,173,c),
(119,173,l),
(119,225,l),
(119,241,o),
(131,253,o),
(147,253,c),
(266,253,l),
(282,253,o),
(294,241,o),
(294,225,c),
(294,210,l)
);
}
);
width = 440;
}
);
unicode = 54;
},
{
export = 0;
glyphname = seven;
lastChange = "2026-01-02 17:00:08 +0000";
layers = (
{
layerId = m01;
shapes = (
{
closed = 1;
nodes = (
(429,290,l),
(429,232,l),
(429,232,o),
(414,218,o),
(392,197,c),
(340,145,o),
(251,51,o),
(251,0,c),
(112,0,l),
(112,0,o),
(190,127,o),
(321,197,c),
(130,197,l),
(80,197,o),
(62,192,o),
(62,174,c),
(10,174,l),
(10,290,l)
);
}
);
width = 439;
}
);
unicode = 55;
},
{
export = 0;
glyphname = eight;
lastChange = "2026-01-02 17:00:08 +0000";
layers = (
{
layerId = m01;
shapes = (
{
closed = 1;
nodes = (
(332,74,l),
(332,54,o),
(315,38,o),
(295,38,c),
(177,38,l),
(156,38,o),
(140,54,o),
(140,74,c),
(140,96,l),
(140,116,o),
(156,132,o),
(177,132,c),
(295,132,l),
(315,132,o),
(332,116,o),
(332,96,c)
);
},
{
closed = 1;
nodes = (
(163,241,o),
(172,245,o),
(182,245,c),
(290,245,l),
(310,245,o),
(326,229,o),
(326,209,c),
(326,199,o),
(322,190,o),
(315,183,c),
(310,177,o),
(303,174,o),
(295,173,c),
(293,172,o),
(291,172,o),
(290,172,c),
(182,172,l),
(180,172,o),
(179,172,o),
(177,173,c),
(159,175,o),
(146,190,o),
(146,209,c),
(146,219,o),
(150,228,o),
(156,234,c)
);
},
{
closed = 1;
nodes = (
(381,162,l),
(381,171,l),
(409,174,o),
(431,198,o),
(431,227,c),
(431,232,l),
(431,264,o),
(406,289,o),
(375,289,c),
(97,289,l),
(66,289,o),
(40,264,o),
(40,232,c),
(40,227,l),
(40,198,o),
(63,174,o),
(91,171,c),
(91,162,l),
(67,162,l),
(35,162,o),
(10,137,o),
(10,106,c),
(10,57,l),
(10,26,o),
(35,0,o),
(67,0,c),
(405,0,l),
(436,0,o),
(462,26,o),
(462,57,c),
(462,106,l),
(462,137,o),
(436,162,o),
(405,162,c)
);
}
);
width = 472;
}
);
unicode = 56;
},
{
export = 0;
glyphname = nine;
lastChange = "2026-01-02 17:00:08 +0000";
layers = (
{
layerId = m01;
shapes = (
{
closed = 1;
nodes = (
(313,177,l),
(313,161,o),
(300,148,o),
(285,148,c),
(167,148,l),
(151,148,o),
(138,161,o),
(138,177,c),
(138,224,l),
(138,239,o),
(151,252,o),
(167,252,c),
(285,252,l),
(300,252,o),
(313,239,o),
(313,224,c)
);
},
{
closed = 1;
nodes = (
(67,290,l),
(36,290,o),
(10,265,o),
(10,234,c),
(10,157,l),
(10,126,o),
(36,100,o),
(67,100,c),
(313,100,l),
(313,69,l),
(313,54,o),
(300,41,o),
(285,41,c),
(167,41,l),
(154,41,o),
(143,50,o),
(139,62,c),
(10,62,l),
(10,56,l),
(10,25,o),
(36,0,o),
(67,0,c),
(385,0,l),
(416,0,o),
(441,25,o),
(441,56,c),
(441,234,l),
(441,265,o),
(416,290,o),
(385,290,c)
);
}
);
width = 451;
}
);
unicode = 57;
},
{
glyphname = "dram-arm";
lastChange = "2026-01-02 16:22:56 +0000";
layers = (
{
layerId = m01;
shapes = (
{
closed = 1;
nodes = (
(790,106,l),
(790,104,o),
(792,102,o),
(794,102,c),
(883,102,l),
(885,102,o),
(888,100,o),
(888,97,c),
(888,78,l),
(888,75,o),
(885,73,o),
(883,73,c),
(794,73,l),
(792,73,o),
(790,71,o),
(790,69,c),
(790,11,l),
(790,5,o),
(786,1,o),
(780,1,c),
(508,1,l),
(502,1,o),
(498,5,o),
(498,11,c),
(498,69,l),
(498,71,o),
(496,73,o),
(494,73,c),
(405,73,l),
(402,73,o),
(400,75,o),
(400,78,c),
(400,97,l),
(400,100,o),
(402,102,o),
(405,102,c),
(494,102,l),
(496,102,o),
(498,104,o),
(498,106,c),
(498,142,l),
(498,144,o),
(496,146,o),
(494,146,c),
(405,146,l),
(402,146,o),
(400,148,o),
(400,151,c),
(400,170,l),
(400,172,o),
(402,175,o),
(405,175,c),
(494,175,l),
(496,175,o),
(498,177,o),
(498,179,c),
(498,262,l),
(497,270,o),
(491,276,o),
(483,276,c),
(350,276,l),
(346,276,o),
(342,275,o),
(339,272,c),
(337,269,o),
(335,266,o),
(335,262,c),
(335,189,l),
(335,184,o),
(331,179,o),
(325,179,c),
(20,179,l),
(15,179,o),
(10,184,o),
(10,189,c),
(10,231,l),
(10,264,o),
(37,291,o),
(70,291,c),
(730,291,l),
(763,291,o),
(790,264,o),
(790,231,c),
(790,179,l),
(790,177,o),
(792,175,o),
(794,175,c),
(883,175,l),
(885,175,o),
(888,172,o),
(888,170,c),
(888,151,l),
(888,148,o),
(885,146,o),
(883,146,c),
(794,146,l),
(792,146,o),
(790,144,o),
(790,142,c)
);
}
);
width = 898;
}
);
unicode = 1423;
},
